<svg xmlns="http://www.w3.org/2000/svg" xmlns:xlink="http://www.w3.org/1999/xlink" version="1.1" id="Layer_1" x="0px" y="0px" width="252px" height="252px" viewBox="0 0 252 252" enable-background="new 0 0 252 252" xml:space="preserve">
<g>
	<path fill="#FFFFFF" d="M241.609 52.122c0 0 5.6 2.6 9.602-0.867l-13.542-13.53l-65.474 65.465l-28.271 131.7 c0 0-33.663 5.511-82.424-43.249c-48.562-48.56-42.441-84.805-42.441-84.805L149.36 80.358l65.469-65.478L200.979 1 c-3.174 4.021-1.943 11.312-1.943 11.312l-56.149 56.155L1.301 99.238c0 0-4.519 51.1 50.4 104.7 c51.007 49.8 101.6 47.3 101.6 47.336l30.739-141.576L241.609 52.122z"/>
	<path fill="#FFFFFF" d="M71.917 181.282c34.875 33.6 61 38.1 61 38.135l17.977-77.734c0 0 0.093-0.373 0.137-1.022 c0.28-3.445-0.43-14.816-20.926-19.766c-24.312-5.892-19.757-19.759-19.757-19.759l-42.672 9.27l-31.061 6.6 C36.605 117 37 147.6 71.9 181.282z"/>
</g>
</svg>
