<?xml version="1.0" encoding="utf-8"?>
<!-- Generator: Adobe Illustrator 16.2.1, SVG Export Plug-In . SVG Version: 6.00 Build 0)  -->
<!DOCTYPE svg PUBLIC "-//W3C//DTD SVG 1.1//EN" "http://www.w3.org/Graphics/SVG/1.1/DTD/svg11.dtd">
<svg version="1.1" id="Layer_1" xmlns="http://www.w3.org/2000/svg" xmlns:xlink="http://www.w3.org/1999/xlink" x="0px" y="0px"
	 width="146.35px" height="42.931px" viewBox="0 0 146.35 42.931" enable-background="new 0 0 146.35 42.931" xml:space="preserve">
<g>
	<g>
		<g>
			<g>
				<path fill="#cccccc" d="M41.243,8.767c0,0,0.961,0.443,1.646-0.149l-2.322-2.321L29.333,17.528l-4.851,22.6
					c0,0-5.775,0.945-14.14-7.42c-8.331-8.332-7.281-14.55-7.281-14.55l22.354-4.548L36.648,2.377L34.271,0
					c-0.545,0.689-0.333,1.94-0.333,1.94l-9.633,9.635L0.016,16.85c0,0-0.776,8.761,8.647,17.957
					c8.75,8.542,17.432,8.121,17.432,8.121l5.273-24.289L41.243,8.767z"/>
				<path fill="#cccccc" d="M12.129,30.924c5.982,5.773,10.464,6.544,10.464,6.544l3.084-13.338c0,0,0.016-0.062,0.023-0.174
					c0.049-0.592-0.074-2.542-3.59-3.392c-4.171-1.011-3.389-3.39-3.389-3.39l-7.321,1.59l-5.329,1.133
					C6.071,19.897,6.145,25.149,12.129,30.924z"/>
			</g>
			<g>
				<path fill="#cccccc" d="M53.11,30.664c-0.416,0.571-0.973,1.037-1.654,1.386s-1.477,0.525-2.365,0.525
					c-0.862,0-1.647-0.15-2.332-0.446c-0.684-0.295-1.279-0.716-1.769-1.252c-0.49-0.538-0.873-1.19-1.139-1.94
					c-0.268-0.754-0.402-1.601-0.402-2.516c0-0.866,0.139-1.679,0.414-2.416c0.272-0.734,0.668-1.383,1.176-1.929
					c0.506-0.546,1.119-0.98,1.82-1.292c1.247-0.554,2.812-0.682,4.423-0.057c0.688,0.268,1.254,0.697,1.682,1.279l0.146,0.196
					l2.723-2.155l-0.139-0.185c-0.357-0.477-0.797-0.891-1.307-1.229c-0.502-0.335-1.043-0.618-1.611-0.844
					c-0.564-0.225-1.166-0.395-1.783-0.503c-0.615-0.107-1.215-0.163-1.781-0.163c-1.36,0-2.64,0.22-3.804,0.651
					c-1.168,0.434-2.195,1.06-3.055,1.86c-0.861,0.803-1.547,1.789-2.039,2.933c-0.492,1.142-0.742,2.438-0.742,3.853
					c0,1.38,0.237,2.658,0.703,3.799c0.467,1.142,1.127,2.14,1.963,2.968c0.836,0.827,1.847,1.479,3.006,1.937
					c1.158,0.458,2.443,0.69,3.821,0.69c1.514,0,2.857-0.275,3.996-0.819c1.137-0.543,2.111-1.318,2.898-2.307l0.156-0.195
					l-2.869-2.017L53.11,30.664z"/>
				<path fill="#cccccc" d="M64.922,22.817c-0.137-0.008-0.264-0.013-0.381-0.013c-0.832,0-1.57,0.229-2.195,0.682
					c-0.406,0.294-0.758,0.65-1.047,1.064v-1.402h-3.287v12.226h3.41v-6.529c0-0.194,0.039-0.465,0.117-0.805
					c0.074-0.33,0.219-0.657,0.432-0.975c0.207-0.312,0.504-0.584,0.879-0.81c0.441-0.265,1.08-0.404,1.871-0.311
					c0.127,0.015,0.287,0.046,0.473,0.093l0.293,0.073v-3.167l-0.162-0.054C65.209,22.853,65.075,22.828,64.922,22.817z"/>
				<path fill="#cccccc" d="M76.439,24.481c-0.527-0.553-1.162-0.976-1.885-1.256c-0.719-0.279-1.509-0.421-2.349-0.421
					c-0.908,0-1.766,0.158-2.549,0.47c-0.785,0.313-1.475,0.759-2.049,1.324c-0.576,0.567-1.035,1.262-1.363,2.062
					s-0.496,1.699-0.496,2.673c0,0.991,0.168,1.891,0.496,2.675c0.33,0.787,0.795,1.461,1.379,2.004
					c0.584,0.542,1.281,0.966,2.074,1.261c0.791,0.294,1.668,0.443,2.605,0.443c2.271,0,4.033-0.823,5.234-2.446l0.135-0.184
					l-2.336-1.867l-0.143,0.208c-0.305,0.44-0.695,0.79-1.166,1.04c-0.468,0.25-1.056,0.376-1.75,0.376
					c-0.393,0-0.777-0.069-1.141-0.205c-0.367-0.138-0.699-0.326-0.986-0.562c-0.285-0.232-0.516-0.513-0.688-0.835
					c-0.135-0.248-0.225-0.521-0.273-0.814h8.878l0.025-0.208c0.018-0.14,0.027-0.28,0.027-0.42v-0.393
					c0-1.082-0.148-2.044-0.443-2.859C77.383,25.729,76.967,25.034,76.439,24.481z M74.703,27.85h-5.515
					c0.104-0.657,0.402-1.192,0.906-1.63c0.566-0.49,1.268-0.738,2.086-0.738c0.438,0,0.822,0.071,1.141,0.213
					c0.316,0.14,0.582,0.33,0.787,0.563c0.205,0.234,0.357,0.511,0.453,0.82C74.637,27.324,74.686,27.583,74.703,27.85z"/>
				<path fill="#cccccc" d="M97.758,24.363c-0.371-0.467-0.852-0.847-1.428-1.13c-0.576-0.284-1.275-0.429-2.074-0.429
					c-0.92,0-1.734,0.205-2.422,0.608c-0.572,0.337-1.055,0.801-1.438,1.382c-0.326-0.537-0.754-0.985-1.273-1.337
					c-0.641-0.434-1.451-0.653-2.408-0.653c-0.496,0-0.955,0.065-1.369,0.194c-0.412,0.13-0.785,0.31-1.105,0.534
					c-0.316,0.223-0.596,0.475-0.828,0.751c-0.057,0.066-0.109,0.133-0.16,0.201v-1.337h-3.264v12.226H83.4v-6.701
					c0-0.369,0.051-0.739,0.15-1.101c0.098-0.356,0.244-0.674,0.432-0.943c0.182-0.264,0.424-0.483,0.719-0.652
					c0.289-0.166,0.637-0.25,1.033-0.25c0.678,0,1.154,0.204,1.461,0.625c0.32,0.438,0.482,1.005,0.482,1.685v7.338h3.41v-6.652
					c0-0.354,0.047-0.717,0.141-1.08c0.09-0.355,0.236-0.68,0.43-0.966c0.193-0.28,0.439-0.513,0.736-0.689
					c0.287-0.173,0.641-0.26,1.053-0.26c0.424,0,0.762,0.085,1.006,0.252c0.252,0.173,0.453,0.397,0.598,0.664
					c0.15,0.277,0.248,0.592,0.293,0.935c0.047,0.361,0.07,0.714,0.07,1.047v6.75h3.412v-7.582c0-0.621-0.086-1.236-0.254-1.828
					C98.402,25.365,98.127,24.827,97.758,24.363z"/>
				<path fill="#cccccc" d="M110.666,24.482c-0.412-0.5-0.982-0.909-1.691-1.217c-0.703-0.306-1.604-0.461-2.678-0.461
					c-0.92,0-1.84,0.161-2.736,0.479c-0.898,0.319-1.705,0.806-2.395,1.444L101,24.883l1.832,2.155l0.18-0.182
					c0.354-0.353,0.809-0.658,1.352-0.906c0.537-0.246,1.105-0.371,1.689-0.371c0.684,0,1.277,0.164,1.768,0.487
					c0.465,0.308,0.689,0.775,0.689,1.432v0.058c-0.842,0.008-1.711,0.053-2.59,0.135c-0.969,0.092-1.865,0.281-2.664,0.563
					c-0.814,0.29-1.492,0.713-2.014,1.26c-0.539,0.565-0.812,1.329-0.812,2.269c0,0.728,0.156,1.35,0.463,1.851
					c0.303,0.493,0.689,0.896,1.148,1.2c0.453,0.298,0.955,0.516,1.496,0.645c0.529,0.126,1.047,0.19,1.535,0.19
					c0.867,0,1.652-0.178,2.338-0.528c0.467-0.239,0.852-0.528,1.148-0.864v1.099h3.215v-7.387c0-0.603-0.08-1.217-0.24-1.823
					C111.371,25.546,111.078,24.98,110.666,24.482z M108.086,30.012h0.424v0.18c0,0.862-0.24,1.548-0.717,2.039
					c-0.475,0.488-1.191,0.736-2.133,0.736c-0.227,0-0.459-0.023-0.688-0.069c-0.219-0.044-0.416-0.117-0.588-0.217
					c-0.166-0.097-0.297-0.22-0.398-0.379c-0.098-0.146-0.146-0.338-0.146-0.568c0-0.372,0.117-0.653,0.359-0.861
					c0.268-0.23,0.611-0.412,1.018-0.541c0.422-0.133,0.893-0.22,1.393-0.26C107.123,30.032,107.619,30.012,108.086,30.012z"/>
				<rect x="114.246" y="16.39" fill="#cccccc" width="3.41" height="18.984"/>
				<path fill="#cccccc" d="M129.646,24.482c-0.414-0.5-0.984-0.909-1.693-1.217c-0.703-0.306-1.604-0.461-2.676-0.461
					c-0.922,0-1.842,0.161-2.736,0.479c-0.9,0.319-1.707,0.806-2.396,1.444l-0.166,0.154l1.832,2.155l0.182-0.182
					c0.352-0.353,0.807-0.658,1.352-0.906c0.537-0.246,1.105-0.371,1.688-0.371c0.684,0,1.279,0.164,1.768,0.487
					c0.465,0.308,0.689,0.775,0.689,1.432v0.058c-0.84,0.008-1.709,0.053-2.588,0.135c-0.971,0.092-1.865,0.281-2.666,0.563
					c-0.814,0.29-1.494,0.713-2.016,1.26c-0.537,0.565-0.811,1.329-0.811,2.269c0,0.728,0.156,1.35,0.463,1.851
					c0.303,0.493,0.689,0.896,1.15,1.2c0.451,0.298,0.955,0.516,1.496,0.645c0.529,0.126,1.047,0.19,1.535,0.19
					c0.865,0,1.652-0.178,2.336-0.528c0.467-0.239,0.852-0.528,1.15-0.864v1.099h3.215v-7.387c0-0.603-0.082-1.217-0.24-1.823
					C130.35,25.546,130.059,24.98,129.646,24.482z M127.064,30.012h0.424v0.18c0,0.862-0.24,1.548-0.717,2.039
					c-0.473,0.488-1.191,0.736-2.131,0.736c-0.229,0-0.461-0.023-0.688-0.069c-0.221-0.044-0.418-0.117-0.59-0.217
					c-0.164-0.097-0.295-0.22-0.398-0.379c-0.096-0.146-0.145-0.338-0.145-0.568c0-0.372,0.117-0.653,0.357-0.861
					c0.27-0.23,0.611-0.412,1.02-0.541c0.422-0.133,0.891-0.22,1.393-0.26C126.102,30.032,126.6,30.012,127.064,30.012z"/>
				<path fill="#cccccc" d="M145.92,26.705c-0.287-0.774-0.699-1.46-1.223-2.035c-0.525-0.576-1.162-1.036-1.889-1.366
					c-0.73-0.331-1.539-0.499-2.4-0.499c-0.559,0-1.066,0.065-1.51,0.193c-0.439,0.126-0.832,0.286-1.164,0.474
					c-0.334,0.189-0.625,0.398-0.865,0.621c-0.086,0.078-0.166,0.156-0.24,0.234V16.39h-3.41v18.984h3.264v-1.325
					c0.381,0.46,0.854,0.829,1.41,1.104c0.756,0.374,1.578,0.563,2.443,0.563c0.928,0,1.773-0.177,2.512-0.525
					c0.736-0.346,1.371-0.818,1.889-1.403c0.516-0.585,0.918-1.278,1.197-2.062c0.275-0.781,0.416-1.627,0.416-2.515
					C146.35,28.323,146.205,27.479,145.92,26.705z M142.891,29.212c0,0.431-0.066,0.869-0.199,1.303
					c-0.129,0.428-0.326,0.813-0.584,1.148c-0.256,0.331-0.586,0.606-0.979,0.817c-0.387,0.209-0.852,0.314-1.381,0.314
					c-0.5,0-0.947-0.102-1.336-0.304c-0.395-0.205-0.736-0.478-1.018-0.812s-0.498-0.717-0.643-1.137
					c-0.146-0.423-0.221-0.854-0.221-1.282s0.074-0.864,0.221-1.295c0.145-0.429,0.361-0.814,0.643-1.148
					c0.281-0.335,0.625-0.612,1.021-0.825c0.387-0.209,0.836-0.314,1.332-0.314c0.529,0,0.996,0.102,1.385,0.304
					c0.391,0.203,0.719,0.474,0.975,0.804c0.258,0.335,0.455,0.718,0.584,1.138C142.824,28.349,142.891,28.781,142.891,29.212z"/>
			</g>
		</g>
	</g>
</g>
</svg>
