<?xml version="1.0" encoding="UTF-8" standalone="no"?>
<svg width="257px" height="195px" viewBox="0 0 257 195" version="1.1" xmlns="http://www.w3.org/2000/svg" xmlns:xlink="http://www.w3.org/1999/xlink" xmlns:sketch="http://www.bohemiancoding.com/sketch/ns">
    <!-- Generator: Sketch 3.2.2 (9983) - http://www.bohemiancoding.com/sketch -->
    <title>golden_layer</title>
    <desc>Created with Sketch.</desc>
    <defs></defs>
    <g id="Page-1" stroke="none" stroke-width="1" fill="none" fill-rule="evenodd" sketch:type="MSPage">
        <g id="Approach" sketch:type="MSArtboardGroup" transform="translate(-471.000000, -2321.000000)">
            <g id="golden_layer" sketch:type="MSLayerGroup" transform="translate(472.000000, 2321.000000)">
                <path d="M88.711715,1.06007432 C88.711715,1.06007432 87.9989334,22.5279659 88.711715,40.0997041 C89.4240614,57.6714423 90.0767918,82.889273 90.0767918,82.889273 C90.0767918,82.889273 92.2525597,115.240362 91.5998294,116.758907 C90.947099,118.277452 84.637372,116.758907 84.637372,116.758907 C84.637372,116.758907 85.5076792,94.9842692 84.637372,72.6399601 C83.7670648,50.295651 82.8967577,35.1101982 81.0473549,21.8771607 C79.1979522,8.64412331 78.2023208,1.68484723 79.37593,0.998464767 C80.14093,0.550710845 88.711715,1.06007432 88.711715,1.06007432" id="Fill-2" fill="#D1D3D4" sketch:type="MSShapeGroup"></path>
                <path id="Fill-3" fill="#000000" sketch:type="MSShapeGroup"></path>
                <path id="Fill-4" fill="#FFFFFF" sketch:type="MSShapeGroup"></path>
                <path d="M8.12301195,106.924374 C8.12301195,106.924374 40.3243771,93.3299226 68.7542662,108.370463 C97.1841553,123.411437 111.979377,108.949245 111.979377,108.949245 L108.498148,125.436308 C108.498148,125.436308 72.2354949,134.98145 11.3139932,124.568568 L8.12301195,106.924374" id="Fill-5" fill="#D1D3D4" sketch:type="MSShapeGroup"></path>
                <path d="M11.6042406,126.882397 L16.8260836,152.336253 C16.8260836,152.336253 57.7305205,163.327484 103.8568,150.889731 L107.627841,128.039529 C107.627841,128.039529 64.1124829,139.03076 11.6042406,126.882397 L11.6042406,126.882397 Z M17.1158959,156.096172 C17.1158959,156.096172 51.0578754,166.798445 102.986493,156.096172 L99.7950768,174.318715 C99.7950768,174.318715 97.7646502,187.04586 90.221698,187.04586 L33.3619198,187.04586 C33.3619198,187.04586 22.6279863,187.9136 20.3073123,174.608106 C17.9862031,161.302613 17.1158959,156.096172 17.1158959,156.096172 L17.1158959,156.096172 Z" id="Stroke-6" stroke="#D1D3D4" sketch:type="MSShapeGroup"></path>
                <path d="M78.3276451,86.3880013 L0.29024744,86.4621931 L17.6963908,181.550028 C17.6963908,181.550028 21.1776195,193.987781 33.0716724,193.987781 L87.2417662,193.987781 C87.2417662,193.987781 100.955631,194.276739 103.566553,180.392896 C105.642671,169.353072 120.972696,86.3880013 120.972696,86.3880013 L95.7337884,86.3880013" id="Stroke-7" stroke="#000000" stroke-linecap="round" stroke-linejoin="round" sketch:type="MSShapeGroup"></path>
                <path d="M166.143379,0.915595582 C166.143379,0.915595582 166.855725,22.3830533 166.143379,39.9547915 C165.431032,57.5265297 164.778302,82.7447942 164.778302,82.7447942 C164.778302,82.7447942 162.602534,115.095449 163.255265,116.613994 C163.907995,118.13254 170.217722,116.613994 170.217722,116.613994 C170.217722,116.613994 169.347415,94.8393566 170.217722,72.4950475 C171.088029,50.1507384 171.958336,34.9652856 173.807739,21.7322481 C175.657142,8.49921071 176.652773,1.5403685 175.479164,0.853552161 C174.714164,0.406232108 166.143379,0.915595582 166.143379,0.915595582" id="Fill-8" fill="#D1D3D4" sketch:type="MSShapeGroup"></path>
                <path id="Fill-9" fill="#000000" sketch:type="MSShapeGroup"></path>
                <path id="Fill-10" fill="#FFFFFF" sketch:type="MSShapeGroup"></path>
                <path d="M246.732082,106.779895 C246.732082,106.779895 214.530717,93.18501 186.100828,108.225984 C157.670503,123.266958 142.875282,108.804333 142.875282,108.804333 L146.35651,125.291396 C146.35651,125.291396 182.619599,134.836538 243.541101,124.423656 L246.732082,106.779895" id="Fill-11" fill="#D1D3D4" sketch:type="MSShapeGroup"></path>
                <path d="M243.250853,126.737919 L238.02901,152.191341 C238.02901,152.191341 197.124573,163.183005 150.998294,150.745252 L147.226817,127.894616 C147.226817,127.894616 190.742176,138.886281 243.250853,126.737919 L243.250853,126.737919 Z M237.738763,155.951693 C237.738763,155.951693 203.796783,166.653966 151.868601,155.951693 L155.059582,174.174236 C155.059582,174.174236 157.090444,186.900947 164.632961,186.900947 L221.493174,186.900947 C221.493174,186.900947 232.227108,187.768687 234.547782,174.463628 C236.868456,161.158134 237.738763,155.951693 237.738763,155.951693 L237.738763,155.951693 Z" id="Stroke-12" stroke="#D1D3D4" sketch:type="MSShapeGroup"></path>
                <path d="M176.527449,86.2430887 L254.564846,86.3177144 L237.158703,181.405549 C237.158703,181.405549 233.677474,193.842868 221.783422,193.842868 L167.613328,193.842868 C167.613328,193.842868 153.899462,194.13226 151.288541,180.248417 C149.212423,169.208593 133.882398,86.2430887 133.882398,86.2430887 L159.121305,86.2430887" id="Stroke-13" stroke="#000000" stroke-linecap="round" stroke-linejoin="round" sketch:type="MSShapeGroup"></path>
            </g>
        </g>
    </g>
</svg>