<?xml version="1.0" encoding="UTF-8" standalone="no"?>
<svg width="413px" height="191px" viewBox="0 0 413 191" version="1.1" xmlns="http://www.w3.org/2000/svg" xmlns:xlink="http://www.w3.org/1999/xlink" xmlns:sketch="http://www.bohemiancoding.com/sketch/ns">
    <!-- Generator: Sketch 3.2.2 (9983) - http://www.bohemiancoding.com/sketch -->
    <title>talk_think_listen</title>
    <desc>Created with Sketch.</desc>
    <defs></defs>
    <g id="Page-1" stroke="none" stroke-width="1" fill="none" fill-rule="evenodd" sketch:type="MSPage">
        <g id="Approach" sketch:type="MSArtboardGroup" transform="translate(-375.000000, -756.000000)">
            <g id="talk_think_listen" sketch:type="MSLayerGroup" transform="translate(375.000000, 757.000000)">
                <path d="M37.9357708,0.415708921 L392.023824,0.415708921 L392.023824,189.442377 L37.9357708,189.442377 L37.9357708,0.415708921 Z" id="Stroke-1" stroke="#58595B" stroke-linecap="round" stroke-linejoin="round" sketch:type="MSShapeGroup"></path>
                <path d="M44.1722273,9.00442682 C43.6301648,10.6430843 45.3236212,12.3878139 47.0538409,12.386254 C48.7848428,12.3846941 50.2921364,11.1266482 51.204178,9.66035778 C52.4752481,11.3387923 55.4843598,11.1679851 56.5559697,9.35696047 C56.6130701,10.6976802 58.1101951,11.6031925 59.4532273,11.529878 C60.7970417,11.4557836 61.9906742,10.6930006 63.1139091,9.9543958 C62.9441723,10.4691573 63.3258845,11.034615 63.8186686,11.262358 C64.3114527,11.4908809 64.8785455,11.4682626 65.4213902,11.4409647 C68.8325511,11.2701574 72.2429299,11.0993502 75.6533087,10.9293229 M44.2144659,15.2743781 C45.4886648,16.077718 47.3182235,15.8562146 48.3632386,14.7713157 C48.5509659,15.7368835 49.6702898,16.2953217 50.6496004,16.1830101 C51.6296932,16.0699186 52.4752481,15.4615641 53.2222462,14.820452 C53.435786,14.6371657 53.6587121,14.4429602 53.9340455,14.3875844 C54.5699716,14.2596739 55.0666667,14.887527 55.500786,15.3679711 C55.9349053,15.8484152 56.7882822,16.2095282 57.1543504,15.676048 M118.965119,8.88119603 C120.26122,9.16353493 121.673085,8.85857773 122.736873,8.06849679 C123.467445,7.52565738 124.182373,6.71997761 125.085811,6.83852875 C124.616492,7.76899918 125.280578,8.94905096 126.216867,9.4099965 C127.153157,9.87094204 128.252926,9.80698682 129.29403,9.72197318 C129.707813,9.68843569 130.134892,9.64865866 130.50096,9.45211335 C131.414566,8.96075009 132.08882,7.52877714 133.028239,7.97022414 C133.356761,8.12465259 133.539795,8.47796618 133.825297,8.70258939 C134.59889,9.30860408 135.698659,8.78682309 136.649811,8.53568187 C137.584536,8.28922029 138.570104,8.33679673 139.533771,8.41323102 C141.802142,8.59417749 144.05878,8.92799254 146.282566,9.41155638 M183.6356,7.8142358 C186.130809,8.14259125 188.697979,8.46782694 191.139216,7.85479277 C191.773578,7.69490472 192.49711,7.48666029 193.040737,7.85089306 C193.280089,8.01156105 193.441222,8.26114239 193.652415,8.45690776 C194.285994,9.04420385 195.265305,9.06214251 196.109295,8.8749565 C196.953286,8.6877705 197.766771,8.33211708 198.630316,8.29000023 C199.198973,8.26192233 199.76372,8.37189411 200.324555,8.46782694 C203.407975,8.99740735 206.559447,9.1331172 209.677284,8.87105679 M184.706428,13.4672532 C186.440559,13.790149 188.535282,13.9952737 189.676508,12.6545539 C189.797748,12.5118246 189.906473,12.3527165 190.064477,12.252104 C190.495468,11.9760047 191.050045,12.2411848 191.527186,12.426811 C192.588627,12.84096 193.76114,12.8323806 194.900801,12.8183417 C197.304492,12.7894838 199.708184,12.7598461 202.111875,12.7302083 M184.133078,17.2538701 C187.340085,17.4496355 190.563519,17.374761 193.758011,17.0292469 M196.649011,17.7616121 L199.256074,17.7616121 M253.204981,8.28922029 C255.923898,8.7103888 258.6874,8.83985913 261.433693,8.67373155 C261.957765,7.6083312 262.512343,6.50393376 263.45489,5.78014787 C264.397438,5.05636198 265.849195,4.8434379 266.743246,5.62571942 C267.596623,6.37290356 267.857877,7.8758512 268.977201,8.06771685 C269.394894,8.13947149 269.814152,7.98738286 270.224805,7.88053085 C273.346553,7.0732912 276.634127,8.90459429 279.817669,8.39217259 M252.417309,13.1264187 C253.773638,13.684077 255.41547,13.4851918 256.598934,12.6194566 C257.485163,13.6427401 259.090231,13.5148296 260.416055,13.2348306 C261.742661,12.9540515 263.267163,12.6475345 264.339555,13.4742727 M329.575564,6.56866892 C331.246337,7.12476735 333.131432,7.00933598 334.720856,6.25279254 C334.939089,6.14906029 335.172184,6.03050915 335.409189,6.07652571 C335.831576,6.15763965 335.979411,6.66538169 336.219545,7.02025516 C336.663051,7.67618612 337.568835,7.86883172 338.351032,7.7393614 C339.133229,7.60911114 339.845028,7.22304 340.584205,6.93836128 C345.64189,4.98772711 351.527922,7.83997388 356.694333,6.19663673 M329.396441,11.6570085 C331.807172,12.0680378 334.368085,12.4634682 336.629417,11.5361176 C337.133934,11.3286531 337.632975,11.0541136 338.178949,11.0408546 C338.864936,11.0252557 339.480525,11.4238059 340.11958,11.6741672 C340.758634,11.9245285 341.601061,11.9791244 342.021883,11.4386248 M345.526907,11.5150591 C346.316926,11.6421896 347.15153,11.4721623 347.828131,11.0463142 C349.873576,11.5634155 352.041826,11.5914934 354.100568,11.1274281 M330.162212,15.6471902 C331.59285,16.2547648 333.068074,14.8438503 334.615259,14.687082 C335.260572,14.6207869 335.90432,14.7791151 336.548068,14.8524296 C337.600123,14.9725406 338.672515,14.8649087 339.716748,15.0427354 C340.555263,15.1854647 341.356233,15.5099205 342.198659,15.6269117 C343.041085,15.743903 343.98989,15.609753 344.564805,14.9842398 M45.7522652,79.747478 C46.514125,79.3044711 47.2603409,78.8349462 47.9885663,78.3396833 C48.2513845,79.1679813 48.5337576,80.0305969 49.1477822,80.6459708 C49.762589,81.2621248 50.8169905,81.5351044 51.5147102,81.0141033 C52.0411288,80.6202328 52.2914318,79.8504303 52.927358,79.6788431 C53.3200208,79.5727711 53.7314564,79.7396786 54.1381989,79.7388987 C54.9438617,79.7373388 55.5946496,79.0977866 56.3580739,78.8411858 C57.5970739,78.4254769 58.911947,79.0572296 60.1931856,79.3177301 C61.4744242,79.5782307 63.2030795,79.118845 63.3118049,77.8194622 C63.7185473,77.9489325 64.0056136,78.3794603 63.9688504,78.8029686 C65.1343239,78.852105 66.2990152,78.9012413 67.4644886,78.9503776 C68.9052955,80.3527128 71.4067614,80.4845229 72.9875814,79.2405159 C73.1854773,79.0853075 73.3958883,78.9020212 73.6469735,78.9121605 C74.0490227,78.9285392 74.2437898,79.3941644 74.5308561,79.6749434 C74.8187045,79.9549425 75.5226818,79.7583972 75.3107064,79.4175627 M118.905672,69.7930822 C119.704295,70.6034416 120.965979,70.9247776 122.056362,70.5956422 C123.146744,70.2665068 124.018112,69.3024989 124.232434,68.1871823 C124.812042,68.6262894 125.034968,69.3750335 125.336896,70.036424 C125.638042,70.6978146 126.169936,71.3802636 126.898161,71.3833833 C127.351053,71.3857231 127.753884,71.119763 128.163756,70.9294573 C130.608121,69.7969819 133.665729,71.2765313 136.121828,70.170574 C136.731159,69.8960345 137.56107,69.5185427 137.954515,70.0574824 C138.110955,70.2704065 138.128163,70.5784835 138.333881,70.745391 C138.545856,70.9177581 138.856388,70.8616023 139.122335,70.7968672 C139.510305,70.7017143 139.899057,70.6065614 140.287027,70.5114085 M119.471983,74.437635 C120.411402,73.8838764 121.450159,73.4970253 122.524116,73.3020399 C122.83543,73.2458841 123.182725,73.2115666 123.447108,73.3854936 C123.961011,73.7224285 123.849157,74.610782 124.374011,74.9297782 C125.061563,75.3478269 125.742856,74.3674402 126.497676,74.0882211 C127.775004,73.6171363 128.865386,75.2479944 130.209983,75.4609185 C130.706678,75.5396926 131.210413,75.4164618 131.698504,75.2971307 C133.682938,74.8127869 135.681451,74.3861588 137.690915,74.0172464 M251.603042,73.1819289 C252.823269,72.7677798 253.888621,71.9792588 255.110413,71.5705693 C256.332987,71.1618799 257.894252,71.2578127 258.639686,72.3060543 C259.065983,72.9050496 259.325672,73.8409796 260.06172,73.8550185 C260.687477,73.8674976 261.040248,73.1678899 261.517388,72.7623202 C262.484966,71.9387018 263.969576,72.3723494 265.102979,72.9495062 C266.236383,73.5258831 267.502759,74.2301705 268.704996,73.8144616 C269.935392,73.3893934 270.619032,71.9137437 271.890884,71.6353045 C273.465447,71.2905703 275.027494,72.979144 276.555907,72.4682822 M327.020909,90.0450482 C328.311534,89.1566946 329.717924,88.4352485 331.193148,87.906448 C331.459095,89.123937 331.867402,90.5200327 333.025053,90.9911174 C333.770487,91.2937348 334.61917,91.1081087 335.387288,90.8678866 C337.682254,90.1526801 339.917773,88.9749682 342.320682,89.0498426 C344.340314,89.1130178 346.212894,90.0590871 348.168386,90.568389 C350.123879,91.077691 352.491589,91.0293346 353.818977,89.5100082 M326.492926,95.7643606 C327.72254,95.8329955 328.966233,95.6442496 330.118409,95.2121619 C330.408604,96.1902087 330.85915,97.1206792 331.447362,97.9552168 C333.228424,96.9202342 335.148718,96.1254736 337.141756,95.5974531" id="Stroke-2" stroke="#404041" stroke-width="0.999" stroke-linecap="round" stroke-linejoin="round" sketch:type="MSShapeGroup"></path>
                <path d="M217.759725,132.910643 C217.486739,133.799777 218.61232,134.472867 219.540006,134.574259 C221.409456,134.779384 223.355562,134.150751 224.749438,132.891145 C225.085782,133.987743 225.196854,135.152976 225.075614,136.293251 C227.497295,136.421941 229.548998,134.476766 231.943303,134.091475 C232.854562,133.944846 233.785377,134.03064 234.706805,134.093035 C238.90642,134.378494 243.13967,134.176489 247.292354,133.49092 C247.46522,133.859833 247.638085,134.227965 247.810951,134.596877 L217.759725,132.910643 Z M48.0292405,134.534482 C49.6257045,134.55944 51.2245152,133.982283 52.4353561,132.944181 C52.5878845,132.813151 52.7521458,132.668082 52.9523883,132.656383 C53.4514299,132.627525 53.5765814,133.315433 53.7658731,133.776379 C54.1006534,134.588298 55.1167273,134.956431 55.9810549,134.791863 C56.8453826,134.626515 57.5720436,134.047019 58.1821572,133.415266 C58.5083333,133.774819 59.0425739,133.835654 59.5267538,133.873871 C61.2874792,134.012701 63.0482045,134.150751 64.8089299,134.28958 C65.3979242,134.335597 66.0033447,134.380054 66.5688731,134.210806 C67.2759792,133.998662 67.8610625,133.468302 68.5799015,133.301394 C70.3265473,132.895045 72.2139886,134.731027 73.7948087,133.885571 L48.0292405,134.534482 Z M61.8702159,35.1106351 L49.1446534,36.2407706 L48.01125,23.5518992 L60.7368125,22.4217637 L61.8702159,35.1106351 L61.8702159,35.1106351 Z" id="Stroke-3" stroke="#404041" stroke-width="0.999" stroke-linecap="round" stroke-linejoin="round" fill="#FFFFFF" sketch:type="MSShapeGroup"></path>
                <path d="M51.2691004,26.8908296 C51.5686818,27.1302717 52.0074943,27.1825278 52.3547898,27.0202999 C52.4377027,26.9820828 52.5237443,26.9306066 52.6129148,26.9469854 C52.6794015,26.9586845 52.7325909,27.0047011 52.7904735,27.0382386 C53.1471553,27.247263 53.5804924,26.9875424 53.9809773,26.8845901 C54.0521572,26.8666514 54.1327235,26.8541724 54.1952992,26.8931694 C54.2570928,26.9313866 54.2868163,27.0117206 54.3540852,27.0397985 C54.4229186,27.0694363 54.5003561,27.032779 54.5660606,26.9969017 C54.8101061,26.8643116 55.0541515,26.7317215 55.2989792,26.5991314 C55.3474754,26.6560672 55.3756345,26.7301616 55.3779811,26.805036 C55.5946496,26.5632541 55.8121004,26.3214722 56.0287689,26.0796903 C56.0710076,26.0321138 56.1218504,25.9814176 56.1852083,25.9814176 C56.2540417,25.9821976 56.3048845,26.0406932 56.3557273,26.0859298 C56.7843712,26.4688812 57.5274583,26.0500525 58.0194602,26.3472103 M53.022786,29.0403489 C53.5319962,29.0996245 54.0060076,28.7338318 54.5191288,28.7307121 C54.7764716,28.7291522 55.024428,28.8188455 55.278642,28.8594024 C55.5320739,28.8999594 55.8214867,28.8804609 56.0037386,28.6995144 M52.2382424,31.1032947 C53.066589,31.1836287 53.9176193,31.018281 54.6552311,30.6337698 C54.7850758,30.5659149 54.925089,30.4887006 55.0697955,30.5120989 C55.2145019,30.5354971 55.3333958,30.7219032 55.2364034,30.831875 C55.818358,30.7484212 56.4167386,30.7772791 56.9885246,30.9153287" id="Stroke-4" stroke="#404041" stroke-linecap="round" stroke-linejoin="round" sketch:type="MSShapeGroup"></path>
                <path d="M285.817902,30.8014573 L273.068091,31.6047972 L272.262428,18.8909677 L285.013021,18.0876278 L285.817902,30.8014573 L285.817902,30.8014573 Z" id="Stroke-5" stroke="#404041" stroke-width="0.999" stroke-linecap="round" stroke-linejoin="round" fill="#FFFFFF" sketch:type="MSShapeGroup"></path>
                <path d="M275.432672,22.3125719 C275.725996,22.5598134 276.163244,22.6237686 276.515233,22.4701201 C276.598146,22.4334629 276.685752,22.3851065 276.774922,22.4030451 C276.840627,22.4163041 276.893034,22.4638806 276.950134,22.498978 C277.301341,22.7165817 277.740936,22.4685602 278.143767,22.3757472 C278.215729,22.3593684 278.296295,22.3500091 278.357307,22.3897861 C278.418318,22.4295631 278.446477,22.5106771 278.512964,22.5410948 C278.581015,22.5715125 278.659235,22.5371951 278.726504,22.5036576 C278.973678,22.3773071 279.220852,22.2509565 279.468809,22.1246059 C279.515741,22.1831016 279.542335,22.257196 279.542335,22.3320704 C279.765261,22.096528 279.98897,21.8602057 280.211896,21.6238834 C280.255699,21.5778668 280.307324,21.5279506 280.370682,21.5295104 C280.439515,21.5318503 280.488794,21.5919058 280.538854,21.6387023 C280.95733,22.0325728 281.710585,21.6332427 282.194765,21.9428795 M277.13004,24.5065479 C277.638468,24.5790824 278.121083,24.2257689 278.634205,24.2359081 C278.890765,24.2405878 279.137157,24.3365206 279.389807,24.384097 C279.643239,24.4308935 279.931869,24.4184145 280.119597,24.2421476 M276.293089,26.5484352 C277.119089,26.6498276 277.97403,26.5070983 278.721028,26.1413057 C278.85322,26.0765705 278.994797,26.003256 279.138722,26.0305539 C279.282646,26.0578519 279.396847,26.2465978 279.296725,26.3542297 C279.881027,26.2863748 280.478625,26.3300515 281.0465,26.4829201" id="Stroke-6" stroke="#404041" stroke-linecap="round" stroke-linejoin="round" sketch:type="MSShapeGroup"></path>
                <path d="M133.771326,47.6871949 L121.009,47.0983389 L121.599559,34.3735902 L134.361102,34.9616662 L133.771326,47.6871949 L133.771326,47.6871949 Z" id="Stroke-7" stroke="#404041" stroke-width="0.999" stroke-linecap="round" stroke-linejoin="round" fill="#FFFFFF" sketch:type="MSShapeGroup"></path>
                <path d="M124.376358,38.1196501 C124.640741,38.3973094 125.068602,38.5072812 125.43467,38.3934097 C125.521494,38.3661117 125.613794,38.3271146 125.700617,38.3551925 C125.763975,38.375471 125.811689,38.4285071 125.864097,38.469844 C126.189491,38.724105 126.654116,38.5252198 127.063987,38.4768634 C127.137513,38.4682841 127.218862,38.4675041 127.27518,38.5143006 C127.331498,38.5603172 127.350271,38.643771 127.412847,38.6812082 C127.476987,38.7194253 127.559117,38.6936872 127.628733,38.6671692 C127.889205,38.5681166 128.148894,38.469844 128.408583,38.3715713 C128.449258,38.4339666 128.467248,38.5111809 128.459426,38.5860553 C128.7066,38.375471 128.954557,38.1648868 129.201731,37.9543025 C129.250227,37.9129656 129.307328,37.8692889 129.370686,37.8778682 C129.438737,37.8880075 129.480975,37.9527426 129.525561,38.0042188 C129.898669,38.4417661 130.691034,38.1266696 131.138451,38.4870027 M125.823422,40.4844334 C126.3209,40.6115638 126.839496,40.3136261 127.347924,40.3791412 C127.60292,40.4118988 127.836797,40.5343496 128.083189,40.6084441 C128.329581,40.6825385 128.618212,40.7020371 128.82393,40.5468287 M124.767456,42.4233684 C125.577813,42.6144541 126.443705,42.5645378 127.226684,42.2829789 C127.36435,42.2330626 127.512968,42.1753469 127.653763,42.2182437 C127.793777,42.2611405 127.886076,42.4608056 127.775004,42.5567384 C128.363216,42.5528387 128.95221,42.6612506 129.50053,42.8749546" id="Stroke-8" stroke="#404041" stroke-linecap="round" stroke-linejoin="round" sketch:type="MSShapeGroup"></path>
                <path d="M166.554765,93.1554556 L153.825292,92.0713367 L154.911763,79.3785656 L167.641237,80.4619046 L166.554765,93.1554556 L166.554765,93.1554556 Z" id="Stroke-9" stroke="#404041" stroke-width="0.999" stroke-linecap="round" stroke-linejoin="round" fill="#FFFFFF" sketch:type="MSShapeGroup"></path>
                <path d="M157.540727,83.2291377 C157.794159,83.5169362 158.216545,83.6448466 158.587307,83.5450141 C158.675695,83.5208359 158.768777,83.4857385 158.854036,83.5169362 C158.917394,83.5395545 158.961979,83.5941504 159.013604,83.6378272 C159.328047,83.9045672 159.800494,83.7236208 160.21193,83.6916431 C160.285456,83.6861836 160.366805,83.6877434 160.421559,83.7368798 C160.476313,83.7852362 160.491956,83.8694699 160.552968,83.9084669 C160.615544,83.9498038 160.698456,83.9271855 160.769636,83.9030073 C161.032455,83.8148739 161.296055,83.7267405 161.559655,83.6378272 C161.597983,83.7025623 161.612845,83.7797766 161.601894,83.853871 C161.857672,83.653426 162.113451,83.452981 162.369229,83.252536 C162.41929,83.212759 162.477955,83.171422 162.54053,83.1823412 C162.607799,83.1948203 162.647691,83.2611153 162.68993,83.3149313 C163.04583,83.7657376 163.849928,83.4818388 164.283265,83.8593306 M158.893928,85.6492968 C159.38593,85.7959258 159.915477,85.5174866 160.421559,85.6025003 C160.674991,85.6453971 160.904174,85.7772072 161.147438,85.860661 C161.390701,85.9448947 161.678549,85.9745325 161.889742,85.8286834 M157.763653,87.546115 C158.565405,87.7676184 159.43208,87.7520196 160.226009,87.5008784 C160.365241,87.4564217 160.516205,87.4049455 160.654653,87.452522 C160.793884,87.5008784 160.87758,87.7044431 160.763379,87.7956963 C161.351591,87.8144149 161.935892,87.9462251 162.474826,88.1809875" id="Stroke-10" stroke="#404041" stroke-linecap="round" stroke-linejoin="round" sketch:type="MSShapeGroup"></path>
                <path d="M185.046684,46.9446904 L197.822307,46.9446904 L197.822307,59.683478 L185.046684,59.683478 L185.046684,46.9446904 Z" id="Stroke-11" stroke="#404041" stroke-width="0.999" stroke-linecap="round" stroke-linejoin="round" fill="#FFFFFF" sketch:type="MSShapeGroup"></path>
                <path d="M187.994002,50.5589402 C188.2709,50.8241203 188.703455,50.9153735 189.064047,50.7843433 C189.150089,50.7531457 189.240042,50.7094689 189.327648,50.7336471 C189.39257,50.7508058 189.441848,50.801502 189.496602,50.8404991 C189.832947,51.0799412 190.288186,50.8592177 190.69571,50.7929227 C190.768455,50.7804436 190.849021,50.775764 190.908468,50.8194407 C190.96635,50.8631174 190.989034,50.9457913 191.053956,50.9801087 C191.119661,51.0152061 191.200227,50.9855683 191.269061,50.9559305 C191.524057,50.8459587 191.778271,50.735207 192.033267,50.6244553 C192.07707,50.6860707 192.098972,50.761725 192.094278,50.8365994 C192.332066,50.615096 192.569854,50.3935925 192.80686,50.1720891 C192.853792,50.1284124 192.908545,50.0816159 192.971903,50.0878554 C193.039955,50.0940949 193.085322,50.1572702 193.132254,50.2071865 C193.524917,50.6260152 194.30242,50.2750414 194.766263,50.615096 M189.549009,52.8550885 C190.051962,52.9588208 190.555697,52.6367048 191.067254,52.6788217 C191.323814,52.7006601 191.563167,52.8114118 191.812687,52.8745871 C192.061426,52.9377623 192.351621,52.9432219 192.549517,52.7794342 M188.584561,54.8408201 C189.402739,54.9936886 190.26472,54.9039953 191.034402,54.5865591 C191.169722,54.5304033 191.31521,54.466448 191.45757,54.5023254 C191.59993,54.5389826 191.701616,54.734748 191.595237,54.8353605 C192.182667,54.8041628 192.775572,54.8852767 193.333278,55.0732427" id="Stroke-12" stroke="#404041" stroke-linecap="round" stroke-linejoin="round" sketch:type="MSShapeGroup"></path>
                <path d="M258.859483,177.153616 L246.164426,175.725543 L247.595847,163.067089 L260.291686,164.495162 L258.859483,177.153616 L258.859483,177.153616 Z" id="Stroke-13" stroke="#404041" stroke-width="0.999" stroke-linecap="round" stroke-linejoin="round" fill="#FFFFFF" sketch:type="MSShapeGroup"></path>
                <path d="M250.119214,166.987856 C250.364824,167.282674 250.784081,167.421503 251.157189,167.33103 C251.245578,167.309972 251.340223,167.277214 251.424701,167.310752 C251.487277,167.33493 251.530297,167.391086 251.580358,167.435542 C251.887761,167.710862 252.364902,167.543174 252.777119,167.522116 C252.850646,167.518216 252.931994,167.522896 252.985184,167.572812 C253.038373,167.622728 253.05167,167.706962 253.1119,167.748299 C253.173693,167.791196 253.256606,167.770917 253.328568,167.749079 C253.594515,167.667185 253.85968,167.586071 254.125627,167.504957 C254.16239,167.570472 254.174905,167.648466 254.16239,167.722561 C254.422862,167.528355 254.684116,167.33493 254.945369,167.141504 C254.996212,167.103287 255.056441,167.06351 255.118235,167.076769 C255.185504,167.090028 255.223831,167.157883 255.264506,167.212479 C255.60789,167.673425 256.419028,167.411364 256.842197,167.800555 M251.40671,169.443112 C251.894019,169.603 252.431388,169.33938 252.934341,169.438433 C253.186991,169.488349 253.412263,169.625619 253.65318,169.716092 C253.894097,169.806565 254.181163,169.844002 254.396267,169.703613 M250.224811,171.308733 C251.020305,171.552075 251.886979,171.559874 252.687167,171.329791 C252.827962,171.289234 252.980491,171.242438 253.117375,171.293914 C253.254259,171.34539 253.333261,171.551295 253.216714,171.640208 C253.804144,171.674525 254.384534,171.821934 254.916428,172.070736" id="Stroke-14" stroke="#404041" stroke-linecap="round" stroke-linejoin="round" sketch:type="MSShapeGroup"></path>
                <path d="M80.1877045,35.2830022 L67.4371117,36.0925817 L66.6251913,23.3795321 L79.3750019,22.5699527 L80.1877045,35.2830022 L80.1877045,35.2830022 Z" id="Stroke-15" stroke="#404041" stroke-width="0.999" stroke-linecap="round" stroke-linejoin="round" fill="#FFFFFF" sketch:type="MSShapeGroup"></path>
                <path d="M70.1114432,27.2971792 C70.051214,27.2316641 70.1779299,27.1357313 70.257714,27.1770682 C70.3367159,27.2184051 70.3680038,27.313558 70.4196288,27.3868725 C70.5729394,27.6044763 70.9077197,27.6099359 71.1455076,27.4906048 C71.3840777,27.3712737 71.5608542,27.1606894 71.7673542,26.992222 C71.973072,26.8229747 72.2452765,26.6896047 72.5010549,26.7675988 C72.6340284,26.8073759 72.7443182,26.9009689 72.8725985,26.9547848 C72.9993144,27.0093808 73.1401098,27.0234197 73.2777765,27.033559 C74.2156307,27.1053136 75.1636534,27.032779 76.0788239,26.8206349 M70.7309432,29.7766139 C71.1282992,30.055833 71.6719261,29.9045243 72.1310758,29.7461962 C72.5910076,29.5886479 73.140892,29.4474785 73.5280795,29.7407366" id="Stroke-16" stroke="#404041" stroke-linecap="round" stroke-linejoin="round" sketch:type="MSShapeGroup"></path>
                <path d="M267.590366,30.7211233 L254.850723,31.674992 L253.894097,18.9713017 L266.634521,18.0182129 L267.590366,30.7211233 L267.590366,30.7211233 Z" id="Stroke-17" stroke="#404041" stroke-width="0.999" stroke-linecap="round" stroke-linejoin="round" fill="#FFFFFF" sketch:type="MSShapeGroup"></path>
                <path d="M257.424934,22.8499517 C257.36314,22.7844366 257.489074,22.6877238 257.56964,22.7282808 C257.649424,22.7688378 257.681494,22.8632107 257.733902,22.9357453 C257.889559,23.1517892 258.224339,23.153349 258.461345,23.0316781 C258.697568,22.9092273 258.87278,22.6970831 259.076934,22.5262759 C259.281087,22.3546887 259.551727,22.218199 259.808288,22.2930734 C259.941261,22.3320704 260.053116,22.4233236 260.181396,22.4763597 C260.309676,22.5293957 260.449689,22.5418748 260.588138,22.5504541 C261.525992,22.6120695 262.473233,22.5286157 263.386839,22.3063324 M258.072593,25.3223669 C258.473078,25.5969064 259.01514,25.4393581 259.472725,25.2763503 C259.930311,25.1133425 260.478631,24.9659335 260.868947,25.254512" id="Stroke-18" stroke="#404041" stroke-linecap="round" stroke-linejoin="round" sketch:type="MSShapeGroup"></path>
                <path d="M310.461799,86.2662307 L297.70182,86.9011032 L297.065112,74.1779144 L309.825091,73.5430419 L310.461799,86.2662307 L310.461799,86.2662307 Z" id="Stroke-19" stroke="#404041" stroke-width="0.999" stroke-linecap="round" stroke-linejoin="round" fill="#FFFFFF" sketch:type="MSShapeGroup"></path>
                <path d="M300.49661,78.1439179 C300.437163,78.0768429 300.565443,77.9832499 300.644445,78.0253668 C300.723447,78.0682636 300.75317,78.1634164 300.803231,78.2375109 C300.954195,78.4574545 301.288193,78.4675937 301.528328,78.3506024 C301.76768,78.2343911 301.948367,78.0269266 302.156432,77.8607991 C302.365278,77.6954514 302.639047,77.5652012 302.893261,77.6463151 C303.025453,77.688432 303.13496,77.7828049 303.261676,77.8389607 C303.388392,77.8951165 303.528405,77.9107153 303.666854,77.9231944 C304.603144,78.008208 305.551949,77.9489325 306.470248,77.7484875 M301.082475,80.6319319 C301.47592,80.9166106 302.021112,80.7715415 302.482608,80.6202328 C302.944886,80.4689241 303.496335,80.3355541 303.879612,80.6334918" id="Stroke-20" stroke="#404041" stroke-linecap="round" stroke-linejoin="round" sketch:type="MSShapeGroup"></path>
                <path d="M230.367958,159.03947 L217.678377,157.56772 L219.154383,144.913946 L231.844746,146.386476 L230.367958,159.03947 L230.367958,159.03947 Z" id="Stroke-21" stroke="#404041" stroke-width="0.999" stroke-linecap="round" stroke-linejoin="round" fill="#FFFFFF" sketch:type="MSShapeGroup"></path>
                <path d="M221.883468,149.389252 C221.835754,149.313597 221.978114,149.242623 222.048511,149.297218 C222.119691,149.352594 222.132989,149.451647 222.170534,149.532761 C222.282388,149.773763 222.610911,149.838498 222.866689,149.763624 C223.122468,149.687969 223.334443,149.513262 223.567538,149.383792 C223.79985,149.254322 224.092392,149.171648 224.329398,149.293319 C224.452985,149.356494 224.545284,149.467246 224.661049,149.54368 C224.776814,149.620114 224.912134,149.659111 225.04589,149.693429 C225.955585,149.930531 226.902044,150.028804 227.84068,149.982007 M222.049294,151.939661 C222.390331,152.285175 222.952731,152.232139 223.433,152.158824 C223.913269,152.08551 224.47958,152.044173 224.808102,152.402166" id="Stroke-22" stroke="#404041" stroke-linecap="round" stroke-linejoin="round" sketch:type="MSShapeGroup"></path>
                <path d="M293.678199,175.307494 L280.951854,176.43295 L279.823144,163.744078 L292.549489,162.617843 L293.678199,175.307494 L293.678199,175.307494 Z" id="Stroke-23" stroke="#404041" stroke-width="0.999" stroke-linecap="round" stroke-linejoin="round" fill="#FFFFFF" sketch:type="MSShapeGroup"></path>
                <path d="M283.405606,167.574372 C283.343812,167.509637 283.468182,167.411364 283.548748,167.450361 C283.629314,167.490138 283.662949,167.584511 283.716138,167.656266 C283.874924,167.86997 284.209705,167.86685 284.444364,167.74128 C284.679805,167.616489 284.851888,167.402005 285.053695,167.228078 C285.255502,167.054151 285.524578,166.913761 285.781138,166.984736 C285.915676,167.022173 286.028312,167.112647 286.157375,167.163343 C286.285655,167.214039 286.426451,167.224958 286.5649,167.231978 C287.503536,167.280334 288.449994,167.185181 289.359689,166.949639 M284.087682,170.037428 C284.491295,170.307288 285.031011,170.14194 285.48625,169.972693 C285.942271,169.803445 286.488244,169.649017 286.882472,169.932136" id="Stroke-24" stroke="#404041" stroke-linecap="round" stroke-linejoin="round" sketch:type="MSShapeGroup"></path>
                <path d="M24.974767,70.1011592 L12.2132235,69.5076236 L12.8084754,56.7820949 L25.5708011,57.3764105 L24.974767,70.1011592 L24.974767,70.1011592 Z" id="Stroke-25" stroke="#404041" stroke-width="0.999" stroke-linecap="round" stroke-linejoin="round" fill="#FFFFFF" sketch:type="MSShapeGroup"></path>
                <path d="M15.841053,61.0592952 C15.7886458,60.9867606 15.9255303,60.9056466 15.999839,60.9555629 C16.0741477,61.0054792 16.0944848,61.1037518 16.1375057,61.181746 C16.2665682,61.4149486 16.5982197,61.4570654 16.8477405,61.3642524 C17.0980436,61.2714393 17.2975038,61.0826934 17.5212121,60.9376243 C17.7441383,60.7925551 18.0296402,60.6896028 18.27525,60.794115 C18.4027481,60.8494908 18.5020871,60.954003 18.6233277,61.021858 C18.743786,61.0897129 18.8814527,61.1193507 19.0175549,61.1443088 C19.9413295,61.3182358 20.8916989,61.3509934 21.825642,61.2402416 M16.1836553,63.5917658 C16.5481591,63.9131018 17.1050833,63.8218486 17.5790947,63.7149966 C18.0531061,63.6089245 18.6155057,63.5285906 18.9674943,63.8624056" id="Stroke-26" stroke="#404041" stroke-linecap="round" stroke-linejoin="round" sketch:type="MSShapeGroup"></path>
                <path d="M340.954966,35.1137549 L328.279464,33.5195541 L329.879057,20.880599 L342.554559,22.4747998 L340.954966,35.1137549 L340.954966,35.1137549 Z" id="Stroke-27" stroke="#404041" stroke-width="0.999" stroke-linecap="round" stroke-linejoin="round" fill="#FFFFFF" sketch:type="MSShapeGroup"></path>
                <path d="M332.564339,25.3824224 C332.517407,25.3059881 332.660549,25.2357934 332.730947,25.2911692 C332.800563,25.347325 332.813078,25.4463776 332.850623,25.5274915 C332.960131,25.7700534 333.287089,25.8386883 333.54365,25.7653738 C333.80021,25.6928392 334.01375,25.5196921 334.248409,25.3925616 C334.482286,25.2654311 334.77561,25.1858771 335.011051,25.3091079 C335.134638,25.373843 335.225373,25.4861546 335.340356,25.5633689 C335.455339,25.6405831 335.590659,25.6803601 335.724415,25.7170174 C336.630981,25.962699 337.576657,26.069551 338.516076,26.0321138 M332.705917,27.9336117 C333.043044,28.2822456 333.606225,28.2354491 334.087277,28.1660343 C334.567545,28.0973994 335.134638,28.062302 335.45925,28.4226351" id="Stroke-28" stroke="#404041" stroke-linecap="round" stroke-linejoin="round" sketch:type="MSShapeGroup"></path>
                <path d="M347.669345,67.7316963 L335.062676,69.796202 L332.992201,57.2251018 L345.599652,55.1613761 L347.669345,67.7316963 L347.669345,67.7316963 Z" id="Stroke-29" stroke="#404041" stroke-width="0.999" stroke-linecap="round" stroke-linejoin="round" fill="#FFFFFF" sketch:type="MSShapeGroup"></path>
                <path d="M336.849996,60.780076 C336.783509,60.7200205 336.900839,60.6131685 336.983752,60.6459261 C337.066665,60.6794636 337.107339,60.7707167 337.166004,60.8385717 C337.340434,61.0397966 337.67365,61.0124987 337.898922,60.8697693 C338.123413,60.7278199 338.27907,60.5008569 338.46758,60.312891 C338.656089,60.124925 338.913432,59.965037 339.175468,60.0165131 C339.31157,60.0438111 339.431246,60.125705 339.563438,60.1670419 C339.695629,60.2083788 339.836424,60.2083788 339.974873,60.205259 C340.915074,60.1842006 341.851364,60.0188529 342.741504,59.7162356 M337.713542,63.1861962 C338.13671,63.4248583 338.662347,63.2205136 339.103506,63.0177287 C339.545447,62.8157238 340.078905,62.6207384 340.492688,62.8742195" id="Stroke-30" stroke="#404041" stroke-linecap="round" stroke-linejoin="round" sketch:type="MSShapeGroup"></path>
                <path d="M61.1811004,99.2436805 L48.4524091,100.332479 L47.3604621,87.6404879 L60.0891534,86.5516893 L61.1811004,99.2436805 L61.1811004,99.2436805 Z" id="Stroke-31" stroke="#404041" stroke-width="0.999" stroke-linecap="round" stroke-linejoin="round" fill="#FFFFFF" sketch:type="MSShapeGroup"></path>
                <path d="M50.9319735,91.4809208 C50.8701799,91.4161857 50.9945492,91.317913 51.0751155,91.35769 C51.1556818,91.3974671 51.1885341,91.49184 51.2417235,91.5643746 C51.4005095,91.7780786 51.7345076,91.7765187 51.9699489,91.651728 C52.2053902,91.5269374 52.3782557,91.3124534 52.5808447,91.1393064 C52.7826515,90.9661593 53.0525095,90.8273297 53.3090701,90.8990843 C53.4428258,90.9365215 53.5554621,91.0269948 53.6845246,91.0784709 C53.8128049,91.1299471 53.9536004,91.1408662 54.0920492,91.1478857 C55.0306856,91.1993619 55.9771439,91.1065488 56.8876212,90.8733462 M51.6062273,93.9470964 C52.0098409,94.2169563 52.5495568,94.0531685 53.0055777,93.885481 C53.4615985,93.7177936 54.0083542,93.564925 54.4017992,93.8496037" id="Stroke-32" stroke="#404041" stroke-linecap="round" stroke-linejoin="round" sketch:type="MSShapeGroup"></path>
                <path d="M61.8827311,154.939317 L49.1094545,154.652298 L49.397303,141.91663 L62.1697973,142.203649 L61.8827311,154.939317 L61.8827311,154.939317 Z" id="Stroke-33" stroke="#404041" stroke-width="0.999" stroke-linecap="round" stroke-linejoin="round" fill="#FFFFFF" sketch:type="MSShapeGroup"></path>
                <path d="M52.5323485,146.119736 C52.4775947,146.048761 52.6129148,145.963748 52.6880057,146.012104 C52.7638788,146.06046 52.7865625,146.157953 52.8319299,146.235167 C52.9656856,146.46525 53.2981193,146.498788 53.5460758,146.400515 C53.7940322,146.301462 53.9887992,146.107257 54.2085966,145.956728 C54.4283939,145.806979 54.7115492,145.697008 54.9587235,145.79606 C55.087786,145.847536 55.1894716,145.949709 55.3122765,146.015224 C55.4350814,146.079959 55.5735303,146.105697 55.7096326,146.128315 C56.6373182,146.279624 57.5884697,146.289763 58.5192841,146.155613 M52.9359621,148.642847 C53.3075057,148.954824 53.8620833,148.850312 54.3337481,148.732541 C54.8054129,148.614769 55.3654659,148.521956 55.7252765,148.847192" id="Stroke-34" stroke="#404041" stroke-linecap="round" stroke-linejoin="round" sketch:type="MSShapeGroup"></path>
                <path d="M133.355979,27.8127207 L120.676566,29.3749439 L119.109826,16.7320891 L131.789239,15.1698659 L133.355979,27.8127207 L133.355979,27.8127207 Z" id="Stroke-35" stroke="#404041" stroke-width="0.999" stroke-linecap="round" stroke-linejoin="round" fill="#FFFFFF" sketch:type="MSShapeGroup"></path>
                <path d="M122.822915,20.4375921 C122.758775,20.3751967 122.880015,20.2722444 122.961364,20.3089017 C123.043494,20.345559 123.080258,20.438372 123.135794,20.5085668 C123.301619,20.7168112 123.6364,20.7019923 123.867148,20.5686223 C124.097114,20.4352522 124.262157,20.2153087 124.457706,20.0343622 C124.653256,19.8541957 124.917638,19.7044469 125.176545,19.7668422 C125.311866,19.7988198 125.427631,19.8853934 125.558258,19.9321899 C125.688884,19.9789864 125.82968,19.9844459 125.968129,19.9867858 C126.90833,20.0031645 127.850095,19.8744742 128.751968,19.6085141 M123.589468,22.8756898 C124.002468,23.1307307 124.535926,22.9474444 124.984907,22.7625983 C125.43467,22.5777521 125.975169,22.404605 126.378782,22.6744648" id="Stroke-36" stroke="#404041" stroke-linecap="round" stroke-linejoin="round" sketch:type="MSShapeGroup"></path>
                <path d="M151.228398,91.1112285 L138.739841,93.7973476 L136.045172,81.3447986 L148.533729,78.6578995 L151.228398,91.1112285 L151.228398,91.1112285 Z" id="Stroke-37" stroke="#404041" stroke-width="0.999" stroke-linecap="round" stroke-linejoin="round" fill="#FFFFFF" sketch:type="MSShapeGroup"></path>
                <path d="M140.075833,84.7040075 C140.006218,84.6478517 140.118072,84.5339802 140.202549,84.563618 C140.287027,84.5924758 140.332394,84.6821691 140.394187,84.7469043 C140.578004,84.9395499 140.909655,84.8950932 141.127106,84.7422246 C141.345339,84.5885761 141.489263,84.3545936 141.667604,84.1572683 C141.846727,83.9599431 142.096248,83.787576 142.359848,83.8265731 C142.497515,83.8460716 142.62032,83.9217259 142.754858,83.9568233 C142.889396,83.9911408 143.030191,83.9849012 143.167858,83.974762 C144.105712,83.9069071 145.032616,83.6955429 145.90633,83.3500287 M141.057491,87.064111 C141.492392,87.2817148 142.007078,87.050852 142.438068,86.8270087 C142.869059,86.6031655 143.392348,86.382442 143.817864,86.6148646" id="Stroke-38" stroke="#404041" stroke-linecap="round" stroke-linejoin="round" sketch:type="MSShapeGroup"></path>
                <path d="M362.647634,113.755276 L349.906428,114.691206 L348.967792,101.986735 L361.708998,101.050805 L362.647634,113.755276 L362.647634,113.755276 Z" id="Stroke-39" stroke="#404041" stroke-width="0.999" stroke-linecap="round" stroke-linejoin="round" fill="#FFFFFF" sketch:type="MSShapeGroup"></path>
                <path d="M352.492371,105.870065 C352.43136,105.80455 352.558076,105.707837 352.63786,105.748394 C352.717644,105.788951 352.749714,105.884104 352.802121,105.956639 C352.956996,106.172682 353.291777,106.175022 353.528782,106.053351 C353.765788,105.930901 353.941,105.719536 354.145153,105.548729 C354.350089,105.377922 354.620729,105.241432 354.876508,105.316306 C355.010263,105.355304 355.121335,105.447337 355.250398,105.500373 C355.377896,105.553409 355.518691,105.565888 355.656358,105.575247 C356.594212,105.637642 357.542235,105.555749 358.455059,105.334245 M353.137684,108.34326 C353.537386,108.61858 354.079449,108.461811 354.537034,108.299583 C354.995402,108.137356 355.543722,107.990727 355.933256,108.280085" id="Stroke-40" stroke="#404041" stroke-linecap="round" stroke-linejoin="round" sketch:type="MSShapeGroup"></path>
                <path d="M197.970924,38.9557476 L185.569973,35.8929166 L188.641661,23.527721 L201.042612,26.5905521 L197.970924,38.9557476 L197.970924,38.9557476 Z" id="Stroke-41" stroke="#404041" stroke-width="0.999" stroke-linecap="round" stroke-linejoin="round" fill="#FFFFFF" sketch:type="MSShapeGroup"></path>
                <path d="M190.780187,28.3118834 C190.742642,28.2307694 190.892824,28.1777334 190.9554,28.2409087 C191.018758,28.3048639 191.01954,28.4046964 191.046917,28.4897101 C191.127483,28.7431911 191.444273,28.8492632 191.707873,28.8071464 C191.971473,28.7642496 192.203786,28.6176205 192.45096,28.5185679 C192.698917,28.4195153 192.998498,28.3742787 193.219078,28.5255874 C193.333278,28.6035816 193.410716,28.7252525 193.516312,28.8157257 C193.621127,28.905419 193.750189,28.9615748 193.879252,29.013051 C194.750619,29.3632448 195.676741,29.5792886 196.613812,29.6518232 M190.621402,30.8622927 C190.915508,31.2483638 191.479472,31.2670824 191.965216,31.2546034 C192.45096,31.2421243 193.018053,31.273322 193.298862,31.6695324" id="Stroke-42" stroke="#404041" stroke-linecap="round" stroke-linejoin="round" sketch:type="MSShapeGroup"></path>
                <path d="M220.346451,61.1302699 L207.721009,59.1788557 L209.678066,46.5898169 L222.303508,48.541231 L220.346451,61.1302699 L220.346451,61.1302699 Z" id="Stroke-43" stroke="#404041" stroke-width="0.999" stroke-linecap="round" stroke-linejoin="round" fill="#FFFFFF" sketch:type="MSShapeGroup"></path>
                <path d="M212.235068,51.1657348 C212.190483,51.0885206 212.334407,51.0222255 212.403241,51.0799412 C212.472074,51.1376569 212.482242,51.2367095 212.516659,51.3193833 C212.619127,51.565065 212.944521,51.6422792 213.202646,51.5767641 C213.461553,51.511249 213.679786,51.3443415 213.917574,51.2234505 C214.155362,51.1033395 214.45025,51.0315848 214.682562,51.1618351 C214.803803,51.22969 214.891409,51.3443415 215.004828,51.4246755 C215.117464,51.5050094 215.25122,51.5494661 215.383411,51.5892431 C216.28372,51.8606629 217.225485,51.9940329 218.164903,51.9831137 M212.303902,53.7200438 C212.63086,54.0780371 213.194824,54.0468394 213.677439,53.9914636 C214.160837,53.9368676 214.72793,53.9173691 215.042373,54.2862815" id="Stroke-44" stroke="#404041" stroke-linecap="round" stroke-linejoin="round" sketch:type="MSShapeGroup"></path>
                <path d="M365.64736,31.0931555 L353.024265,33.0578286 L351.053129,20.4719095 L363.676223,18.5064564 L365.64736,31.0931555 L365.64736,31.0931555 Z" id="Stroke-45" stroke="#404041" stroke-width="0.999" stroke-linecap="round" stroke-linejoin="round" fill="#FFFFFF" sketch:type="MSShapeGroup"></path>
                <path d="M354.882765,24.0565215 C354.816278,23.996466 354.93439,23.889614 355.017303,23.9239314 C355.100216,23.9574689 355.140108,24.049502 355.197991,24.1181369 C355.370074,24.3201418 355.704072,24.2951837 355.930127,24.1547942 C356.156964,24.0144047 356.314186,23.7890015 356.503477,23.6018155 C356.693551,23.4154094 356.952458,23.2578612 357.213712,23.3116772 C357.349814,23.3397551 357.468708,23.4224289 357.6009,23.4645458 C357.732309,23.5066626 357.873886,23.5082225 358.012335,23.5058827 C358.951754,23.4926237 359.889608,23.3342955 360.782095,23.0394776 M355.726756,26.4696611 C356.147578,26.711443 356.675561,26.510998 357.118284,26.3121129 C357.56179,26.1132278 358.096813,25.922922 358.508248,26.1795228" id="Stroke-46" stroke="#404041" stroke-linecap="round" stroke-linejoin="round" sketch:type="MSShapeGroup"></path>
                <path d="M85.9063466,22.9614834 L98.6819697,22.9614834 L98.6819697,35.700271 L85.9063466,35.700271 L85.9063466,22.9614834 Z" id="Stroke-47" stroke="#404041" stroke-width="0.999" stroke-linecap="round" stroke-linejoin="round" fill="#FFFFFF" sketch:type="MSShapeGroup"></path>
                <path d="M88.234947,26.230219 C89.0194905,26.2286591 89.8040341,26.2270992 90.5885777,26.2247594 C90.6730549,26.2598568 90.6378561,26.3830876 90.6261231,26.4727809 C90.6003106,26.6810253 90.8021174,26.8611918 91.0101818,26.8939494 C91.217464,26.9274869 91.4263106,26.8572921 91.6273352,26.7948968 C92.4400379,26.5429756 93.2918504,26.4150652 94.1436629,26.417405 M90.2264205,29.2907102 C90.4376136,29.3663645 90.6480246,29.186198 90.867822,29.1425213 C91.0899659,29.0972847 91.312892,29.1963373 91.5287784,29.266532 C92.1991212,29.4856956 92.9226534,29.4435788 93.6258485,29.399902 C93.7869811,29.3897628 93.953589,29.3780637 94.0998598,29.3094288 C94.2461307,29.2407939 94.3697178,29.0996245 94.3689356,28.9381766 M88.7206913,31.6757719 C89.2909129,31.6313152 89.8619167,31.5868585 90.4329205,31.5416219 C90.4759413,31.5385022 90.5228731,31.5361623 90.5596364,31.5603405 C90.6089148,31.593878 90.6167367,31.6625129 90.641767,31.7178887 C90.7152936,31.8785567 90.9303977,31.9066346 91.1079564,31.8980553 C91.5929186,31.874657 92.0724053,31.7498664 92.5065246,31.5338225 C92.607428,31.4839062 92.7286686,31.4285304 92.825661,31.4846862 C92.8890189,31.5221234 92.9195246,31.5962178 92.964892,31.6547135 C93.1072519,31.8364399 93.3763277,31.8418995 93.607858,31.8309803 C94.1905947,31.8029024 94.7725492,31.7748245 95.3545038,31.7467466" id="Stroke-48" stroke="#404041" stroke-linecap="round" stroke-linejoin="round" sketch:type="MSShapeGroup"></path>
                <path d="M399.60957,74.9336779 L412.385193,74.9336779 L412.385193,87.6724655 L399.60957,87.6724655 L399.60957,74.9336779 Z" id="Stroke-49" stroke="#404041" stroke-width="0.999" stroke-linecap="round" stroke-linejoin="round" fill="#FFFFFF" sketch:type="MSShapeGroup"></path>
                <path d="M401.93817,78.2024135 C402.722714,78.2000737 403.507258,78.1985138 404.291801,78.1969539 C404.376278,78.2312714 404.34108,78.3545022 404.330129,78.4449754 C404.304316,78.6532198 404.506123,78.8326064 404.713405,78.8661439 C404.92147,78.8996814 405.129534,78.8287067 405.330559,78.7663114 C406.144044,78.5143902 406.995856,78.3864798 407.846886,78.3895995 M403.930426,81.2621248 C404.140837,81.3385591 404.351248,81.1583925 404.571045,81.1139359 C404.793972,81.0694792 405.016116,81.1677518 405.232002,81.2387265 C405.902345,81.4571102 406.625877,81.4157733 407.329072,81.3713166 C407.490987,81.3611774 407.656813,81.3502582 407.803083,81.2808434 C407.949354,81.2122085 408.073723,81.0710391 408.072159,80.9095911 M402.423915,83.6479664 C402.994919,83.6027298 403.56514,83.5582731 404.136144,83.5138164 C404.179165,83.5099167 404.226879,83.5075769 404.26286,83.5317551 C404.31292,83.5660725 404.31996,83.6347074 404.344991,83.6893033 C404.418517,83.8507513 404.634403,83.8788292 404.811962,83.8702498 C405.296142,83.8468515 405.775629,83.7220609 406.209748,83.5052371 C406.310652,83.4553208 406.431892,83.4007249 406.528884,83.4568807 C406.593025,83.4943179 406.622748,83.5684124 406.668116,83.626128 C406.810475,83.8086344 407.080333,83.8133141 407.311864,83.8023949 C407.893818,83.774317 408.475773,83.7462391 409.057727,83.7181612" id="Stroke-50" stroke="#404041" stroke-linecap="round" stroke-linejoin="round" sketch:type="MSShapeGroup"></path>
                <path d="M61.4384432,55.7034356 L48.7074053,54.6434948 L49.770411,41.9483839 L62.5022311,43.0091046 L61.4384432,55.7034356 L61.4384432,55.7034356 Z" id="Stroke-51" stroke="#404041" stroke-width="0.999" stroke-linecap="round" stroke-linejoin="round" fill="#FFFFFF" sketch:type="MSShapeGroup"></path>
                <path d="M52.3618295,44.6586813 C52.5652008,45.2077602 53.0853617,45.5914915 53.642286,45.7763377 C54.198428,45.9619638 54.7952443,45.9767827 55.381892,45.9908217 C55.5469356,45.9947214 55.7127614,45.9986211 55.8738939,45.9650836 C56.0537992,45.9292063 56.2204072,45.8480924 56.3924905,45.7849171 C57.1653011,45.5002384 58.0171136,45.5657535 58.8376383,45.6351683 C58.7781913,45.8457525 58.7734981,46.0719356 58.8227765,46.2848597 M53.2128598,48.3727636 C53.2066023,48.5139331 53.4146667,48.5381113 53.5538977,48.5084735 C54.3415701,48.3384462 55.1229848,48.1348814 55.8934489,47.8977791 C55.8175758,48.0849651 55.969322,48.301009 56.1593958,48.3712037 C56.3494697,48.4406185 56.5598807,48.4047412 56.7593409,48.3688639 M52.9430019,51.4784914 C53.6430682,51.818546 54.527733,51.7421117 55.1589659,51.2881857 C55.8113182,51.6765966 56.517642,51.9729745 57.252125,52.1679599 C57.4938239,52.2319151 57.7746326,52.2787116 57.9772216,52.1313026" id="Stroke-52" stroke="#404041" stroke-linecap="round" stroke-linejoin="round" sketch:type="MSShapeGroup"></path>
                <path d="M152.153737,28.7767286 L139.461027,27.3252571 L140.916695,14.6691433 L153.609405,16.1213948 L152.153737,28.7767286 L152.153737,28.7767286 Z" id="Stroke-53" stroke="#404041" stroke-width="0.999" stroke-linecap="round" stroke-linejoin="round" fill="#FFFFFF" sketch:type="MSShapeGroup"></path>
                <path d="M143.422854,17.4582148 C143.608235,18.0127534 144.117445,18.4120835 144.668112,18.6148683 C145.218778,18.8168732 145.814812,18.8504107 146.400678,18.8823883 C146.564939,18.8909677 146.730765,18.8995471 146.89268,18.8722491 C147.073367,18.8410514 147.243104,18.766177 147.416752,18.7076814 C148.198167,18.4471809 149.047633,18.5384341 149.865811,18.6335869 C149.799324,18.8418314 149.787591,19.0680145 149.830612,19.2824984 M144.158119,21.1956954 C144.147951,21.3376448 144.355233,21.3680625 144.495246,21.3423244 C145.287612,21.1972553 146.074502,21.0170887 146.852006,20.8041647 C146.771439,20.9890108 146.916146,21.2097343 147.103873,21.2853887 C147.2916,21.3602631 147.503576,21.3314052 147.703036,21.3009875 M143.792051,24.2928438 C144.481949,24.6539569 145.368178,24.6048205 146.013491,24.170393 C146.653328,24.5783025 147.350265,24.8965187 148.077708,25.1133425 C148.317843,25.1850971 148.597087,25.240473 148.804369,25.1000835" id="Stroke-54" stroke="#404041" stroke-linecap="round" stroke-linejoin="round" sketch:type="MSShapeGroup"></path>
                <path d="M80.4669489,99.5252394 L67.7265246,98.5744905 L68.6792405,85.8708002 L81.4196648,86.8215492 L80.4669489,99.5252394 L80.4669489,99.5252394 Z" id="Stroke-55" stroke="#404041" stroke-width="0.999" stroke-linecap="round" stroke-linejoin="round" fill="#FFFFFF" sketch:type="MSShapeGroup"></path>
                <path d="M71.294125,88.5584793 C71.5021894,89.1059984 72.0254792,89.48505 72.5839678,89.6652166 C73.1416742,89.8453831 73.7392727,89.8555223 74.3259205,89.8641017 C74.4901818,89.8672215 74.6567898,89.8687813 74.8171402,89.8352438 C74.9970455,89.7970267 75.1628712,89.7151328 75.3341723,89.6503977 C76.1046364,89.3586995 76.9572311,89.4164152 77.7785379,89.4788105 C77.7206553,89.6901747 77.7175265,89.9163578 77.7691515,90.1292819 M72.1772254,92.2647622 C72.1725322,92.4067116 72.3805966,92.4293299 72.5190455,92.3981322 C73.3059356,92.2210855 74.0850038,92.0105012 74.8531212,91.7671594 C74.7795947,91.9551254 74.9336875,92.1696093 75.1237614,92.2374643 C75.3146174,92.3060991 75.5250284,92.2686619 75.7237064,92.2304448 M71.9339621,95.3736098 C72.6371572,95.7066449 73.5210398,95.6231911 74.1491439,95.1638055 C74.804625,95.5459769 75.5132955,95.8368952 76.2485606,96.0248611 C76.4918239,96.0872564 76.7726326,96.1309332 76.9736572,95.9827443" id="Stroke-56" stroke="#404041" stroke-linecap="round" stroke-linejoin="round" sketch:type="MSShapeGroup"></path>
                <path d="M118.765659,172.673631 L106.024453,173.61502 L105.080341,160.91055 L117.821547,159.969941 L118.765659,172.673631 L118.765659,172.673631 Z" id="Stroke-57" stroke="#404041" stroke-width="0.999" stroke-linecap="round" stroke-linejoin="round" fill="#FFFFFF" sketch:type="MSShapeGroup"></path>
                <path d="M108.065205,163.18252 C108.352271,163.693382 108.926403,163.99132 109.505229,164.087253 C110.084055,164.182406 110.676178,164.104411 111.25735,164.026417 C111.42083,164.004579 111.585091,163.982741 111.739184,163.925025 C111.911267,163.86107 112.063795,163.754998 112.223364,163.666084 C112.94142,163.263634 113.793233,163.195779 114.61454,163.135724 C114.589509,163.353328 114.619233,163.577171 114.702146,163.779956 M109.489585,166.717996 C109.505229,166.859165 109.714858,166.850586 109.847049,166.79911 C110.599523,166.508192 111.337917,166.184516 112.062231,165.830422 C112.016864,166.026968 112.20068,166.217273 112.399358,166.256271 C112.598036,166.295268 112.800625,166.227413 112.991481,166.160338 M109.710165,169.828403 C110.455598,170.053807 111.316797,169.840883 111.869811,169.293363 C112.57457,169.574922 113.319222,169.758209 114.074824,169.835423 C114.323562,169.861161 114.608282,169.863501 114.785059,169.686454" id="Stroke-58" stroke="#404041" stroke-linecap="round" stroke-linejoin="round" sketch:type="MSShapeGroup"></path>
                <path d="M81.9969261,154.351241 L69.2557197,155.281711 L68.3225587,142.576461 L81.0637652,141.64599 L81.9969261,154.351241 L81.9969261,154.351241 Z" id="Stroke-59" stroke="#404041" stroke-width="0.999" stroke-linecap="round" stroke-linejoin="round" fill="#FFFFFF" sketch:type="MSShapeGroup"></path>
                <path d="M71.3050758,144.850771 C71.5913598,145.361633 72.1654924,145.65957 72.7443182,145.756283 C73.3231439,145.852216 73.915267,145.775002 74.4964394,145.697788 C74.6599186,145.675949 74.8241799,145.653331 74.9782727,145.596395 C75.1503561,145.53244 75.3028845,145.426368 75.4624527,145.337454 C76.1812917,144.935784 77.0331042,144.86793 77.854411,144.809434 C77.8285985,145.027038 77.8591042,145.250881 77.942017,145.453666 M72.7263277,148.387026 C72.7419716,148.528196 72.9508182,148.519617 73.0837917,148.46892 C73.8362652,148.178782 74.5754413,147.855886 75.2997557,147.501793 C75.2543883,147.698338 75.4382045,147.888644 75.6368826,147.927641 C75.8355606,147.967418 76.0373674,147.899563 76.2290057,147.832488 M72.9445606,151.497434 C73.6892121,151.724397 74.5511932,151.511473 75.1042064,150.964734 C75.8089659,151.247073 76.5536174,151.430359 77.3084375,151.508353 C77.5579583,151.534091 77.8418958,151.537211 78.0194545,151.360164" id="Stroke-60" stroke="#404041" stroke-linecap="round" stroke-linejoin="round" sketch:type="MSShapeGroup"></path>
                <path d="M31.7845739,52.4775967 L19.0433674,53.4080672 L18.1094242,40.702817 L30.8514129,39.7723466 L31.7845739,52.4775967 L31.7845739,52.4775967 Z" id="Stroke-61" stroke="#404041" stroke-width="0.999" stroke-linecap="round" stroke-linejoin="round" fill="#FFFFFF" sketch:type="MSShapeGroup"></path>
                <path d="M21.0927235,42.9779069 C21.3790076,43.4879888 21.9531402,43.7859265 22.5319659,43.8826393 C23.1107917,43.9785721 23.7029148,43.9013579 24.2840871,43.8241437 C24.4475663,43.8023053 24.6118277,43.779687 24.7659205,43.7227513 C24.9380038,43.658796 25.0905322,43.552724 25.2501004,43.4638106 C25.9689394,43.0621406 26.8207519,42.9950657 27.6420587,42.9357901 C27.6162462,43.1533938 27.6467519,43.3772371 27.7288826,43.5800219 M22.5139754,46.5133826 C22.5296193,46.6545521 22.7384659,46.6459727 22.8714394,46.5952765 C23.6239129,46.3051382 24.363089,45.9822423 25.0874034,45.6281488 C25.042036,45.8246941 25.2258523,46.0149999 25.4245303,46.053997 C25.6232083,46.093774 25.8250152,46.0259191 26.0166534,45.9588441 M22.7322083,49.6237901 C23.4768598,49.8507531 24.3388409,49.637829 24.8918542,49.0910899 C25.5966136,49.3734288 26.3412652,49.5567151 27.0960852,49.6347093 C27.3456061,49.6604473 27.6295436,49.6635671 27.8071023,49.4865203" id="Stroke-62" stroke="#404041" stroke-linecap="round" stroke-linejoin="round" sketch:type="MSShapeGroup"></path>
                <path d="M170.634705,179.150267 L158.193862,182.04775 L155.288,169.642777 L167.728843,166.745294 L170.634705,179.150267 L170.634705,179.150267 Z" id="Stroke-63" stroke="#404041" stroke-width="0.999" stroke-linecap="round" stroke-linejoin="round" fill="#FFFFFF" sketch:type="MSShapeGroup"></path>
                <path d="M158.589653,171.426504 C158.951811,171.88667 159.565835,172.091794 160.152483,172.097254 C160.739131,172.102713 161.311699,171.934246 161.874098,171.767339 C162.032102,171.720542 162.19167,171.672966 162.334813,171.592632 C162.494381,171.502158 162.628136,171.374248 162.772061,171.261156 C163.41972,170.753414 164.250413,170.554529 165.052947,170.368903 C165.060769,170.587287 165.125691,170.804111 165.23911,170.991297 M160.545146,174.699139 C160.583473,174.835629 160.788409,174.795072 160.911996,174.724097 C161.609716,174.320088 162.289445,173.88722 162.949619,173.424715 C162.93554,173.62594 163.146733,173.785048 163.34854,173.793627 C163.551129,173.801426 163.74042,173.703154 163.918761,173.607221 M161.246777,177.737792 C162.018023,177.846204 162.836201,177.50225 163.296915,176.875957 C164.037655,177.045204 164.80108,177.110719 165.559811,177.070942 C165.810114,177.057683 166.090922,177.015566 166.238758,176.813561" id="Stroke-64" stroke="#404041" stroke-linecap="round" stroke-linejoin="round" sketch:type="MSShapeGroup"></path>
                <path d="M189.151653,169.525006 L176.451121,168.143729 L177.836392,155.479816 L190.536924,156.861093 L189.151653,169.525006 L189.151653,169.525006 Z" id="Stroke-65" stroke="#404041" stroke-width="0.999" stroke-linecap="round" stroke-linejoin="round" fill="#FFFFFF" sketch:type="MSShapeGroup"></path>
                <path d="M180.357413,158.254849 C180.546705,158.808607 181.057479,159.205598 181.608928,159.404483 C182.161159,159.603368 182.757193,159.633786 183.343841,159.662643 C183.50732,159.670443 183.673928,159.678242 183.835843,159.649384 C184.01653,159.617407 184.185485,159.541753 184.359133,159.482477 C185.138201,159.217297 185.988449,159.30387 186.807409,159.394344 C186.742487,159.603368 186.731536,159.829551 186.776121,160.043255 M181.11458,161.98843 C181.104411,162.130379 181.311693,162.160017 181.451706,162.133499 C182.244072,161.98375 183.029398,161.799684 183.806119,161.58208 C183.725553,161.766926 183.871824,161.98687 184.060333,162.061744 C184.248843,162.135839 184.460036,162.105421 184.659496,162.074223 M180.76572,165.087138 C181.457182,165.444351 182.343411,165.390535 182.986377,164.952988 C183.627778,165.356998 184.327062,165.671314 185.055288,165.884238 C185.296205,165.954433 185.575449,166.008249 185.781167,165.86708" id="Stroke-66" stroke="#404041" stroke-linecap="round" stroke-linejoin="round" sketch:type="MSShapeGroup"></path>
                <path d="M198.031153,82.4577754 L185.354869,80.8698141 L186.947422,68.2300791 L199.623706,69.8180403 L198.031153,82.4577754 L198.031153,82.4577754 Z" id="Stroke-67" stroke="#404041" stroke-width="0.999" stroke-linecap="round" stroke-linejoin="round" fill="#FFFFFF" sketch:type="MSShapeGroup"></path>
                <path d="M189.423076,71.0456686 C189.602981,71.6025469 190.106716,72.0073367 190.655818,72.2155811 C191.204138,72.4238255 191.79939,72.4636026 192.385256,72.5018197 C192.549517,72.5127389 192.715343,72.5228781 192.877258,72.4971401 C193.058727,72.4682822 193.229246,72.3941878 193.403676,72.338032 C194.187437,72.0861108 195.035339,72.1867233 195.852735,72.2904555 C195.784684,72.4986999 195.769822,72.7233231 195.810496,72.9385871 M190.118449,74.7917285 C190.105934,74.932898 190.313216,74.9656555 190.453229,74.9414773 C191.247941,74.8049875 192.036396,74.6334003 192.816246,74.4282757 C192.733333,74.6123419 192.875693,74.8346253 193.062638,74.9126195 C193.249583,74.9898337 193.461559,74.9633157 193.661801,74.9352378 M189.718746,77.8841973 C190.403951,78.2523298 191.290962,78.2133327 191.940968,77.7859247 C192.576894,78.2000737 193.26992,78.5260893 193.995017,78.7507125 C194.234369,78.8255869 194.512831,78.8833026 194.721678,78.7452529" id="Stroke-68" stroke="#404041" stroke-linecap="round" stroke-linejoin="round" sketch:type="MSShapeGroup"></path>
                <path d="M264.39118,92.3848732 L251.664053,91.2726764 L252.778684,78.5822451 L265.505811,79.694442 L264.39118,92.3848732 L264.39118,92.3848732 Z" id="Stroke-69" stroke="#404041" stroke-width="0.999" stroke-linecap="round" stroke-linejoin="round" fill="#FFFFFF" sketch:type="MSShapeGroup"></path>
                <path d="M255.358369,81.3026817 C255.559394,81.8525406 256.078773,82.2386118 256.634133,82.4257978 C257.190275,82.6129838 257.787091,82.6309224 258.373739,82.6473012 C258.538,82.6512009 258.704608,82.6558806 258.865741,82.623903 C259.045646,82.5880257 259.213036,82.5084716 259.385119,82.4452963 C260.158712,82.1637374 261.010525,82.2331522 261.831049,82.3056868 C261.77082,82.516271 261.764562,82.7416742 261.813841,82.9553782 M256.19532,85.0198838 C256.187498,85.1618332 256.395562,85.1867914 256.534794,85.1571536 C257.32403,84.991026 258.105445,84.789801 258.877473,84.5558185 C258.800818,84.7430045 258.951782,84.9598283 259.141856,85.0300231 C259.331148,85.1009978 259.542341,85.0659004 259.741019,85.030803 M255.912165,88.1256117 C256.610667,88.4680061 257.496114,88.3954715 258.129693,87.9438852 C258.779699,88.334636 259.485241,88.6341336 260.218159,88.8314589 C260.459858,88.896974 260.740667,88.9445504 260.944038,88.7987013" id="Stroke-70" stroke="#404041" stroke-linecap="round" stroke-linejoin="round" sketch:type="MSShapeGroup"></path>
                <path d="M267.091324,110.437404 L254.482309,112.48943 L252.425131,99.9167701 L265.034146,97.8647436 L267.091324,110.437404 L267.091324,110.437404 Z" id="Stroke-71" stroke="#404041" stroke-width="0.999" stroke-linecap="round" stroke-linejoin="round" fill="#FFFFFF" sketch:type="MSShapeGroup"></path>
                <path d="M255.597722,101.91888 C255.928591,102.402444 256.526972,102.648126 257.112055,102.693363 C257.697138,102.737819 258.279875,102.609129 258.852443,102.480438 C259.012794,102.443781 259.174708,102.407124 259.323326,102.336929 C259.488369,102.257375 259.630729,102.138824 259.782475,102.035872 C260.462987,101.572586 261.304631,101.430637 262.118116,101.298827 C262.111858,101.51799 262.161919,101.737934 262.26204,101.932919 M257.327159,105.315527 C257.355318,105.454356 257.563383,105.427838 257.690881,105.365443 C258.414413,105.009789 259.122301,104.622938 259.812199,104.206449 C259.784822,104.406115 259.984282,104.579262 260.185307,104.6011 C260.387114,104.622938 260.582663,104.537145 260.767261,104.453691 M257.821508,108.394736 C258.583367,108.554624 259.422665,108.266826 259.924835,107.67329 C260.652278,107.891674 261.409445,108.008665 262.168958,108.019584 C262.420044,108.023484 262.703199,108.000866 262.863549,107.80978" id="Stroke-72" stroke="#404041" stroke-linecap="round" stroke-linejoin="round" sketch:type="MSShapeGroup"></path>
                <path d="M271.071142,156.421986 L258.43475,158.298525 L256.552002,145.698567 L269.188394,143.822028 L271.071142,156.421986 L271.071142,156.421986 Z" id="Stroke-73" stroke="#404041" stroke-width="0.999" stroke-linecap="round" stroke-linejoin="round" fill="#FFFFFF" sketch:type="MSShapeGroup"></path>
                <path d="M259.696434,147.745134 C260.020263,148.232598 260.615515,148.487639 261.199816,148.540675 C261.784117,148.592931 262.369201,148.47204 262.942551,148.351149 C263.103684,148.317612 263.266381,148.283294 263.41578,148.213879 C263.582388,148.137445 263.726313,148.021234 263.879623,147.919841 C264.56561,147.465915 265.410383,147.335665 266.225432,147.215554 C266.215263,147.433938 266.262195,147.655441 266.35997,147.851207 M261.378939,151.165179 C261.405534,151.304788 261.613598,151.28061 261.741879,151.219775 C262.470104,150.874261 263.183468,150.497549 263.878841,150.090419 C263.848335,150.290084 264.046231,150.465571 264.246473,150.490529 C264.447498,150.514707 264.644612,150.432034 264.829992,150.35092 M261.829485,154.250628 C262.58978,154.421435 263.432989,154.145336 263.943763,153.55882 C264.667295,153.787343 265.42368,153.914473 266.182411,153.936312 C266.432714,153.943331 266.716652,153.924612 266.880131,153.735867" id="Stroke-74" stroke="#404041" stroke-linecap="round" stroke-linejoin="round" sketch:type="MSShapeGroup"></path>
                <path d="M341.652686,115.925853 L328.957629,114.49544 L330.392178,101.836987 L343.087235,103.2674 L341.652686,115.925853 L341.652686,115.925853 Z" id="Stroke-75" stroke="#404041" stroke-width="0.999" stroke-linecap="round" stroke-linejoin="round" fill="#FFFFFF" sketch:type="MSShapeGroup"></path>
                <path d="M332.902248,104.621378 C333.089975,105.176697 333.598403,105.575247 334.149852,105.776472 C334.700519,105.977697 335.297335,106.010455 335.883201,106.040872 C336.047462,106.049452 336.213288,106.058031 336.375203,106.029953 C336.55589,105.998755 336.724845,105.923101 336.898492,105.864605 C337.679907,105.602545 338.529373,105.693018 339.347551,105.785831 C339.281847,105.994856 339.270114,106.221039 339.313917,106.435523 M333.644553,108.358859 C333.634384,108.500028 333.841667,108.530446 333.98168,108.504708 C334.774045,108.357299 335.560936,108.176353 336.337657,107.961869 C336.257091,108.147495 336.40258,108.367438 336.590307,108.443093 C336.778034,108.517967 336.990009,108.488329 337.190252,108.457912 M333.28396,111.456007 C333.973858,111.815561 334.860087,111.765644 335.5054,111.329657 C336.145237,111.736786 336.842956,112.053443 337.571182,112.269487 C337.811316,112.340461 338.089778,112.395837 338.297061,112.254668" id="Stroke-76" stroke="#404041" stroke-linecap="round" stroke-linejoin="round" sketch:type="MSShapeGroup"></path>
                <path d="M231.179879,175.787158 L218.471525,177.09824 L217.156652,164.426527 L229.865006,163.116225 L231.179879,175.787158 L231.179879,175.787158 Z" id="Stroke-77" stroke="#404041" stroke-width="0.999" stroke-linecap="round" stroke-linejoin="round" fill="#FFFFFF" sketch:type="MSShapeGroup"></path>
                <path d="M220.206438,166.611144 C220.508366,167.113426 221.091102,167.394205 221.672275,167.47298 C222.254229,167.551754 222.843223,167.456601 223.422831,167.362228 C223.584746,167.33571 223.749008,167.308412 223.900754,167.246017 C224.070491,167.177382 224.21989,167.06741 224.377112,166.973037 C225.083436,166.550309 225.932902,166.457496 226.752644,166.374042 C226.733089,166.591645 226.769852,166.814709 226.858241,167.015154 M221.733286,170.102943 C221.753623,170.244112 221.96247,170.229294 222.093879,170.173918 C222.836966,169.861161 223.565973,169.516427 224.279337,169.141275 C224.240227,169.33938 224.429519,169.523446 224.628979,169.556984 C224.828439,169.590521 225.028682,169.516427 225.217973,169.443892 M222.045383,173.205551 C222.796292,173.409896 223.652015,173.172014 224.18782,172.608896 C224.901184,172.869396 225.650528,173.030844 226.407695,173.08622 C226.657998,173.104159 226.941936,173.098699 227.114019,172.916973" id="Stroke-78" stroke="#404041" stroke-linecap="round" stroke-linejoin="round" sketch:type="MSShapeGroup"></path>
                <path d="M80.2025663,56.0356907 L67.5035985,54.640375 L68.9029489,41.9780217 L81.6019167,43.3733374 L80.2025663,56.0356907 L80.2025663,56.0356907 Z" id="Stroke-79" stroke="#404041" stroke-width="0.999" stroke-linecap="round" stroke-linejoin="round" fill="#FFFFFF" sketch:type="MSShapeGroup"></path>
                <path d="M71.6875701,48.4180002 C71.6124792,48.4905348 71.5757159,48.5997266 71.5897955,48.7034589 C72.3446155,48.635604 73.0994356,48.567749 73.8542557,48.4998941 C74.0325966,48.4842953 74.2195417,48.4694764 74.3845852,48.5381113 C74.4925284,48.5825679 74.5832633,48.6605621 74.6888598,48.7096984 C74.8366951,48.7775534 75.003303,48.7869127 75.166,48.7947121 C76.1312311,48.8415086 77.0964621,48.889085 78.0616932,48.9358815" id="Stroke-80" stroke="#404041" stroke-linecap="round" stroke-linejoin="round" sketch:type="MSShapeGroup"></path>
                <path d="M154.894555,47.4009563 L142.235479,49.1191678 L140.512299,36.4965915 L153.171375,34.7783799 L154.894555,47.4009563 L154.894555,47.4009563 Z" id="Stroke-81" stroke="#404041" stroke-width="0.999" stroke-linecap="round" stroke-linejoin="round" fill="#FFFFFF" sketch:type="MSShapeGroup"></path>
                <path d="M144.779966,42.0700548 C144.725994,42.1597481 144.716608,42.2743995 144.755718,42.3711123 C145.470646,42.1230908 146.186356,41.8742894 146.902066,41.626268 C147.071803,41.5677724 147.249362,41.5077169 147.426138,41.5350148 C147.541121,41.5521735 147.648282,41.6052096 147.763265,41.6270479 C147.922833,41.6582456 148.087095,41.626268 148.246663,41.5950703 C149.194686,41.4071044 150.142708,41.2191384 151.089949,41.0311725" id="Stroke-82" stroke="#404041" stroke-linecap="round" stroke-linejoin="round" sketch:type="MSShapeGroup"></path>
                <path d="M132.761509,92.3973523 L120.011699,93.203812 L119.202907,80.4899825 L131.952718,79.6843027 L132.761509,92.3973523 L132.761509,92.3973523 Z" id="Stroke-83" stroke="#404041" stroke-width="0.999" stroke-linecap="round" stroke-linejoin="round" fill="#FFFFFF" sketch:type="MSShapeGroup"></path>
                <path d="M123.057574,86.355924 C122.997345,86.4409376 122.979354,86.5548091 123.011424,86.6538617 C123.742778,86.4573164 124.474915,86.261551 125.206269,86.0650057 C125.379134,86.0182092 125.560604,85.9721927 125.735816,86.0111897 C125.849235,86.0369278 125.952485,86.0977633 126.065121,86.127401 C126.222343,86.1695179 126.388169,86.1500194 126.550083,86.1297409 C127.509057,86.0104098 128.467248,85.8910787 129.426222,85.7717476" id="Stroke-84" stroke="#404041" stroke-linecap="round" stroke-linejoin="round" sketch:type="MSShapeGroup"></path>
                <path d="M167.455074,109.6832 L154.691184,110.247878 L154.125655,97.5215692 L166.888763,96.9568914 L167.455074,109.6832 L167.455074,109.6832 Z" id="Stroke-85" stroke="#404041" stroke-width="0.999" stroke-linecap="round" stroke-linejoin="round" fill="#FFFFFF" sketch:type="MSShapeGroup"></path>
                <path d="M157.867686,103.459265 C157.80511,103.542719 157.785555,103.656591 157.815278,103.756423 C158.551326,103.573917 159.286591,103.39141 160.021856,103.208904 C160.195504,103.166007 160.377756,103.12311 160.551403,103.165227 C160.664822,103.193305 160.766508,103.255701 160.878362,103.288458 C161.034801,103.332915 161.201409,103.316536 161.363324,103.299377 C162.324644,103.197985 163.285182,103.096592 164.246502,102.9952" id="Stroke-86" stroke="#404041" stroke-linecap="round" stroke-linejoin="round" sketch:type="MSShapeGroup"></path>
                <path d="M99.2881723,174.101704 L86.567303,172.917753 L87.7538958,160.234341 L100.474765,161.417512 L99.2881723,174.101704 L99.2881723,174.101704 Z" id="Stroke-87" stroke="#404041" stroke-width="0.999" stroke-linecap="round" stroke-linejoin="round" fill="#FFFFFF" sketch:type="MSShapeGroup"></path>
                <path d="M90.645678,166.626743 C90.5729337,166.700837 90.5377348,166.810809 90.5533788,166.913761 C91.3074167,166.833427 92.0606723,166.753093 92.813928,166.672759 C92.9922689,166.654041 93.1784318,166.636102 93.3450398,166.702397 C93.452983,166.745294 93.5452822,166.820948 93.651661,166.868525 C93.8002784,166.93404 93.9684508,166.940279 94.1303655,166.945739 C95.0963788,166.976937 96.062392,167.007354 97.0284053,167.038552" id="Stroke-88" stroke="#404041" stroke-linecap="round" stroke-linejoin="round" sketch:type="MSShapeGroup"></path>
                <path d="M221.640987,36.4747531 L208.948277,37.9270045 L207.491044,25.2716707 L220.183754,23.8186393 L221.640987,36.4747531 L221.640987,36.4747531 Z" id="Stroke-89" stroke="#404041" stroke-width="0.999" stroke-linecap="round" stroke-linejoin="round" fill="#FFFFFF" sketch:type="MSShapeGroup"></path>
                <path d="M211.640598,30.9332674 C211.58428,31.0214008 211.572547,31.1360522 211.610093,31.233545 C212.330496,31.0003424 213.0509,30.7671398 213.772085,30.5339373 C213.942604,30.4785614 214.120945,30.4231855 214.297722,30.4536033 C214.412705,30.4731018 214.518301,30.5284777 214.632502,30.5534358 C214.791288,30.5869733 214.956331,30.5588954 215.116682,30.5308175 C216.068616,30.3623501 217.019767,30.1946626 217.971701,30.0269752" id="Stroke-90" stroke="#404041" stroke-linecap="round" stroke-linejoin="round" sketch:type="MSShapeGroup"></path>
                <path d="M297.519568,105.951179 L284.955138,103.642552 L287.269659,91.1143482 L299.834089,93.4229756 L297.519568,105.951179 L297.519568,105.951179 Z" id="Stroke-91" stroke="#404041" stroke-width="0.999" stroke-linecap="round" stroke-linejoin="round" fill="#FFFFFF" sketch:type="MSShapeGroup"></path>
                <path d="M289.579487,97.738393 C289.499703,97.8062479 289.455117,97.91232 289.461375,98.0168322 C290.219324,98.0035732 290.977273,97.9903142 291.734439,97.9770552 C291.913563,97.9739354 292.10129,97.9731555 292.260858,98.0534894 C292.36489,98.1057455 292.45015,98.1899792 292.551835,98.246135 C292.694195,98.3249092 292.860021,98.3459676 293.021936,98.3662461 C293.980909,98.4824574 294.939883,98.5994486 295.899638,98.7156599" id="Stroke-92" stroke="#404041" stroke-linecap="round" stroke-linejoin="round" sketch:type="MSShapeGroup"></path>
                <path d="M292.671511,154.839484 L279.924047,153.989348 L280.77586,141.279418 L293.523324,142.128774 L292.671511,154.839484 L292.671511,154.839484 Z" id="Stroke-93" stroke="#404041" stroke-width="0.999" stroke-linecap="round" stroke-linejoin="round" fill="#FFFFFF" sketch:type="MSShapeGroup"></path>
                <path d="M283.835032,147.593826 C283.763852,147.67026 283.731782,147.781012 283.750555,147.883184 C284.501464,147.783352 285.253155,147.683519 286.004064,147.582907 C286.181623,147.559508 286.367004,147.53689 286.535176,147.598505 C286.644684,147.638282 286.738547,147.712377 286.846491,147.756834 C286.997455,147.818449 287.164845,147.820789 287.327542,147.821569 C288.293555,147.827028 289.26035,147.832488 290.226364,147.837948" id="Stroke-94" stroke="#404041" stroke-linecap="round" stroke-linejoin="round" sketch:type="MSShapeGroup"></path>
                <path d="M241.102047,48.8563275 L228.600975,51.4831711 L225.966536,39.018143 L238.467608,36.3905194 L241.102047,48.8563275 L241.102047,48.8563275 Z" id="Stroke-95" stroke="#404041" stroke-width="0.999" stroke-linecap="round" stroke-linejoin="round" fill="#FFFFFF" sketch:type="MSShapeGroup"></path>
                <path d="M230.627648,44.2694904 C230.579934,44.3623034 230.578369,44.4777348 230.624519,44.5713278 C231.320674,44.2718302 232.016047,43.9723326 232.712203,43.6736149 C232.876464,43.6026402 233.04933,43.5301057 233.22767,43.5441446 C233.344218,43.5535039 233.454508,43.5987405 233.570273,43.6127795 C233.732188,43.6314981 233.894102,43.5878213 234.050542,43.5449245 C234.982138,43.2891037 235.913735,43.0332828 236.846114,42.7774619" id="Stroke-96" stroke="#404041" stroke-linecap="round" stroke-linejoin="round" sketch:type="MSShapeGroup"></path>
                <path d="M349.017852,51.7093542 L336.268824,50.882616 L337.097953,38.1703464 L349.846981,38.9970845 L349.017852,51.7093542 L349.017852,51.7093542 Z" id="Stroke-97" stroke="#404041" stroke-width="0.999" stroke-linecap="round" stroke-linejoin="round" fill="#FFFFFF" sketch:type="MSShapeGroup"></path>
                <path d="M340.168858,44.4792947 C340.097678,44.555729 340.065608,44.6664807 340.084381,44.769433 C340.83529,44.6680406 341.586199,44.5666482 342.337108,44.4652557 C342.514667,44.4410776 342.70083,44.4176793 342.869002,44.4792947 C342.978509,44.5190717 343.072373,44.5923862 343.180316,44.6368429 C343.33128,44.6984583 343.49867,44.7000182 343.661367,44.7007981 C344.627381,44.7046978 345.594176,44.7085976 346.560189,44.7117173" id="Stroke-98" stroke="#404041" stroke-linecap="round" stroke-linejoin="round" sketch:type="MSShapeGroup"></path>
                <path d="M62.6977803,117.379665 L49.980822,116.154376 L51.2088712,103.474864 L63.9258295,104.699373 L62.6977803,117.379665 L62.6977803,117.379665 Z" id="Stroke-99" stroke="#404041" stroke-width="0.999" stroke-linecap="round" stroke-linejoin="round" fill="#FFFFFF" sketch:type="MSShapeGroup"></path>
                <path d="M54.0803163,109.876626 C54.0067898,109.95072 53.9708087,110.060692 53.9864527,110.163644 C54.7404905,110.08565 55.4937462,110.007656 56.2477841,109.930442 C56.426125,109.911723 56.6122879,109.894564 56.7788958,109.960859 C56.886839,110.004536 56.9791383,110.08019 57.085517,110.127767 C57.2341345,110.194842 57.4015246,110.201081 57.5642216,110.207321 C58.5294527,110.240858 59.4954659,110.275176 60.460697,110.308713" id="Stroke-100" stroke="#404041" stroke-linecap="round" stroke-linejoin="round" sketch:type="MSShapeGroup"></path>
                <path d="M13.330983,52.9525812 L0.614806818,51.7272928 L1.84285606,39.0477808 L14.5598144,40.2722892 L13.330983,52.9525812 L13.330983,52.9525812 Z" id="Stroke-101" stroke="#404041" stroke-width="0.999" stroke-linecap="round" stroke-linejoin="round" fill="#FFFFFF" sketch:type="MSShapeGroup"></path>
                <path d="M4.71351894,45.4495422 C4.64077462,45.5236366 4.60479356,45.6336084 4.6204375,45.7365607 C5.37447538,45.6585665 6.12773106,45.5805724 6.88176894,45.5025782 C7.06010985,45.4846395 7.24627273,45.4674808 7.41288068,45.5337759 C7.52082386,45.5766727 7.61312311,45.6531069 7.7187197,45.7006834 C7.86733712,45.7669784 8.03472727,45.7739979 8.19742424,45.7802374 C9.1634375,45.8137749 10.1294508,45.8480924 11.0946818,45.8816299" id="Stroke-102" stroke="#404041" stroke-linecap="round" stroke-linejoin="round" sketch:type="MSShapeGroup"></path>
                <path d="M81.5096174,72.1734643 L68.7582424,72.9713446 L67.9580549,60.2567352 L80.7094299,59.4596348 L81.5096174,72.1734643 L81.5096174,72.1734643 Z" id="Stroke-103" stroke="#404041" stroke-width="0.999" stroke-linecap="round" stroke-linejoin="round" fill="#FFFFFF" sketch:type="MSShapeGroup"></path>
                <path d="M71.0805852,64.4036851 C71.4153655,64.9504243 72.1811364,64.9987806 72.8225379,64.9613434 C74.1444508,64.8833493 75.4608883,64.7039627 76.754642,64.4239636 C77.0174602,64.3670279 77.3201705,64.3139918 77.5321458,64.4785595 C77.7386458,64.6392275 77.7660227,64.9356054 77.7761913,65.1961059 C77.7785379,65.1196716 77.7808845,65.0424574 77.7832311,64.9660231 M72.0293902,67.6661812 C72.7998542,67.7145376 73.5843977,67.4774353 74.1984223,67.0110302 C74.125678,67.0859046 74.1882538,67.2208345 74.284464,67.2613915 C74.379892,67.3027284 74.4893996,67.2824499 74.5934318,67.2754304 C74.919608,67.2535921 75.2536061,67.375263 75.4898295,67.6006661 C75.5218996,67.5335911 75.5539697,67.4657362 75.5860398,67.3986612" id="Stroke-104" stroke="#404041" stroke-linecap="round" stroke-linejoin="round" sketch:type="MSShapeGroup"></path>
                <path d="M133.021199,111.076176 L120.282339,110.100469 L121.260867,97.3991184 L133.999727,98.3740455 L133.021199,111.076176 L133.021199,111.076176 Z" id="Stroke-105" stroke="#404041" stroke-width="0.999" stroke-linecap="round" stroke-linejoin="round" fill="#FFFFFF" sketch:type="MSShapeGroup"></path>
                <path d="M123.774848,101.937599 C124.030627,102.524895 124.782318,102.679324 125.422937,102.7308 C126.743286,102.836872 128.071456,102.840772 129.391805,102.743279 C129.660098,102.723 129.96672,102.712861 130.153665,102.905507 C130.335917,103.092693 130.321837,103.38985 130.296025,103.649571 C130.309322,103.573917 130.321837,103.498262 130.335134,103.422608 M124.260593,105.299928 C125.016977,105.454356 125.827333,105.328006 126.500023,104.951294 C126.417892,105.015249 126.460913,105.157978 126.550083,105.211794 C126.639254,105.26483 126.750326,105.260931 126.854358,105.26795 C127.180534,105.291348 127.494195,105.457476 127.696784,105.714077 C127.737458,105.651681 127.778915,105.589286 127.819589,105.526891" id="Stroke-106" stroke="#404041" stroke-linecap="round" stroke-linejoin="round" sketch:type="MSShapeGroup"></path>
                <path d="M409.810201,106.363768 L397.072123,105.388061 L398.049869,92.6859307 L410.788729,93.6616378 L409.810201,106.363768 L409.810201,106.363768 Z" id="Stroke-107" stroke="#404041" stroke-width="0.999" stroke-linecap="round" stroke-linejoin="round" fill="#FFFFFF" sketch:type="MSShapeGroup"></path>
                <path d="M400.564633,97.2251914 C400.820411,97.8124875 401.572102,97.9669159 402.211939,98.0183921 C403.532288,98.1244641 404.860458,98.1283638 406.181589,98.0308711 C406.4491,98.0105927 406.755722,98.0004534 406.943449,98.193099 C407.125701,98.380285 407.111621,98.6774428 407.085027,98.9371634 C407.098324,98.861509 407.110839,98.7858547 407.124136,98.7102003 M401.049595,100.58752 C401.805979,100.741948 402.616335,100.615598 403.289025,100.238886 C403.206894,100.302841 403.249915,100.445571 403.339085,100.498607 C403.428256,100.552423 403.539328,100.547743 403.64336,100.555542 C403.969536,100.578941 404.283197,100.745068 404.485786,101.001669 C404.52646,100.939274 404.567917,100.876878 404.609373,100.814483" id="Stroke-108" stroke="#404041" stroke-linecap="round" stroke-linejoin="round" sketch:type="MSShapeGroup"></path>
                <path d="M87.9009489,141.544598 L100.676572,141.544598 L100.676572,154.283386 L87.9009489,154.283386 L87.9009489,141.544598 Z" id="Stroke-109" stroke="#404041" stroke-width="0.999" stroke-linecap="round" stroke-linejoin="round" fill="#FFFFFF" sketch:type="MSShapeGroup"></path>
                <path d="M90.7559678,145.877954 C91.0563314,146.444192 91.8174091,146.540904 92.4595928,146.543244 C93.7846345,146.548704 95.1088939,146.451211 96.4182917,146.252326 C96.6842386,146.211769 96.9892955,146.178232 97.1903201,146.356058 C97.3866515,146.529205 97.3952557,146.826363 97.3889981,147.086864 C97.3968201,147.010429 97.4038598,146.933995 97.4108996,146.857561 M91.4982727,149.193486 C92.2640436,149.289419 93.0626667,149.102233 93.7048504,148.674825 C93.6274129,148.74502 93.6813845,148.883849 93.7744659,148.930646 C93.8675473,148.977442 93.9778371,148.964183 94.0818693,148.963403 C94.4088277,148.961843 94.7350038,149.103793 94.9555833,149.344795 C94.9923466,149.27928 95.0283277,149.213765 95.0650909,149.14825" id="Stroke-110" stroke="#404041" stroke-linecap="round" stroke-linejoin="round" sketch:type="MSShapeGroup"></path>
                <path d="M187.727273,150.676155 L175.018136,151.974758 L173.715778,139.302266 L186.424915,138.003663 L187.727273,150.676155 L187.727273,150.676155 Z" id="Stroke-111" stroke="#404041" stroke-width="0.999" stroke-linecap="round" stroke-linejoin="round" fill="#FFFFFF" sketch:type="MSShapeGroup"></path>
                <path d="M176.998659,143.322865 C177.355341,143.856345 178.122676,143.874284 178.761731,143.811889 C180.079733,143.681638 181.387566,143.450776 182.670369,143.1193 C182.930059,143.052225 183.230422,142.98827 183.448655,143.144258 C183.661413,143.296347 183.700523,143.591165 183.721642,143.851666 C183.72086,143.774451 183.720078,143.698017 183.719295,143.620803 M178.076527,146.545584 C178.847773,146.563523 179.62293,146.296003 180.218182,145.805419 C180.148566,145.882634 180.215835,146.016004 180.31361,146.052661 C180.411384,146.089318 180.519328,146.06514 180.622578,146.054221 C180.948754,146.019903 181.286663,146.127535 181.531491,146.344359 C181.561214,146.275724 181.590155,146.207089 181.619879,146.138455" id="Stroke-112" stroke="#404041" stroke-linecap="round" stroke-linejoin="round" sketch:type="MSShapeGroup"></path>
                <path d="M63.399411,177.143477 L50.7004432,178.534893 L49.3050038,165.871759 L62.0039716,164.480343 L63.399411,177.143477 L63.399411,177.143477 Z" id="Stroke-113" stroke="#404041" stroke-width="0.999" stroke-linecap="round" stroke-linejoin="round" fill="#FFFFFF" sketch:type="MSShapeGroup"></path>
                <path d="M52.617608,169.868181 C52.9782008,170.398541 53.745536,170.4118 54.3838087,170.343945 C55.7010284,170.205115 57.0072973,169.963333 58.2869716,169.623279 C58.546661,169.554644 58.8462424,169.487569 59.0660398,169.641997 C59.2795795,169.793306 59.321036,170.087344 59.3437197,170.347845 C59.3421553,170.27063 59.3413731,170.194196 59.3398087,170.116982 M53.7181591,173.0831 C54.4901875,173.094799 55.2629981,172.82182 55.8551212,172.327337 C55.7855057,172.405331 55.854339,172.537141 55.9521136,172.573798 C56.0498883,172.609676 56.1578314,172.584717 56.2610814,172.573018 C56.5864754,172.535581 56.9259489,172.641653 57.1723409,172.856137 C57.2012822,172.787502 57.2302235,172.718867 57.2583826,172.649453" id="Stroke-114" stroke="#404041" stroke-linecap="round" stroke-linejoin="round" sketch:type="MSShapeGroup"></path>
                <path d="M110.216246,0.335374927 L110.607345,126.448047 M37.8630265,126.823979 L391.416057,126.823979 M207.20867,189.219314 L207.20867,126.823979 M177.876284,0.473424606 L177.876284,126.448047 M247.882913,0.0834537609 L247.882913,126.823979 M319.453936,0.0834537609 L319.453936,126.044037 M319.062837,65.208585 L248.274011,65.208585 M177.876284,62.0888182 L110.216246,62.0888182" id="Stroke-115" stroke="#58595B" sketch:type="MSShapeGroup"></path>
            </g>
        </g>
    </g>
</svg>