<?xml version="1.0" encoding="utf-8"?>
<!-- Generator: Adobe Illustrator 16.2.1, SVG Export Plug-In . SVG Version: 6.00 Build 0)  -->
<!DOCTYPE svg PUBLIC "-//W3C//DTD SVG 1.1//EN" "http://www.w3.org/Graphics/SVG/1.1/DTD/svg11.dtd">
<svg version="1.1" id="Layer_1" xmlns="http://www.w3.org/2000/svg" xmlns:xlink="http://www.w3.org/1999/xlink" x="0px" y="0px"
	 width="640px" height="1136px" viewBox="0 0 640 1136" enable-background="new 0 0 640 1136" xml:space="preserve">
<path display="none" fill="#58595B" d="M418.762,706.345c3.56-1.531,6.053-5.067,6.053-9.188V440.629c0-5.523-4.477-10-10-10
	H288.828L418.762,706.345z"/>
<path fill="#2C3338" d="M425,441c0-5.523-4.478-10-10-10H225c-5.523,0-10,4.477-10,10v257c0,5.522,4.477,10,10,10h190
	c5.522,0,10-4.478,10-10V441z M401,682H239V458h162V682z"/>
<polygon fill="#F1F1F2" points="401.104,670.141 401.104,457.869 301.066,457.869 "/>
<ellipse fill="#BBBDBF" cx="320.002" cy="695.028" rx="7.019" ry="6.731"/>
<ellipse fill="#2C3338" cx="320.002" cy="695.228" rx="7.019" ry="6.731"/>
<path fill="#E6E7E8" d="M321.634,692.666h-3.264c-0.535,0-0.97,0.429-0.97,0.957v3.085c0,0.529,0.435,0.957,0.97,0.957h3.264
	c0.536,0,0.97-0.428,0.97-0.957v-3.085C322.604,693.095,322.17,692.666,321.634,692.666z M322.169,696.45
	c0,0.44-0.362,0.797-0.809,0.797h-2.717c-0.446,0-0.809-0.356-0.809-0.797v-2.569c0-0.44,0.362-0.797,0.809-0.797h2.717
	c0.446,0,0.809,0.356,0.809,0.797V696.45z"/>
</svg>
