<?xml version="1.0" encoding="UTF-8" standalone="no"?>
<svg width="380px" height="797px" viewBox="0 0 380 797" version="1.1" xmlns="http://www.w3.org/2000/svg" xmlns:xlink="http://www.w3.org/1999/xlink" xmlns:sketch="http://www.bohemiancoding.com/sketch/ns">
    <title>iphone-black</title>
    <description>Created with Sketch (http://www.bohemiancoding.com/sketch)</description>
    <defs></defs>
    <g id="Page-1" stroke="none" stroke-width="1" fill="none" fill-rule="evenodd" sketch:type="MSPage">
        <g id="Black" sketch:type="MSLayerGroup">
            <rect id="Lock-Button" fill="#111111" sketch:type="MSShapeGroup" x="255" y="0" width="62" height="9" rx="2"></rect>
            <rect id="Alarm-Button" fill="#111111" sketch:type="MSShapeGroup" x="0" y="113" width="8" height="35" rx="2"></rect>
            <rect id="Volume-Up" fill="#111111" sketch:type="MSShapeGroup" x="0" y="188" width="8" height="26" rx="2"></rect>
            <rect id="Volume-Down" fill="#111111" sketch:type="MSShapeGroup" x="0" y="254" width="8" height="26" rx="2"></rect>
            <rect id="Antenna-copy" fill="#212222" sketch:type="MSShapeGroup" x="4" y="3" width="376" height="794" rx="57"></rect>
            <rect id="Separator-Bottom" fill="#1A1A1B" sketch:type="MSShapeGroup" x="4" y="725" width="376" height="8"></rect>
            <rect id="Separator-Top" fill="#1A1A1B" sketch:type="MSShapeGroup" x="4" y="72" width="376" height="8"></rect>
            <rect id="Body" fill="#1C1D1D" sketch:type="MSShapeGroup" x="13" y="12" width="358" height="777" rx="48"></rect>
            <rect id="Screen" fill="#000000" sketch:type="MSShapeGroup" x="32" y="117" width="320" height="570" rx="1"></rect>
            <circle id="Home-Button" fill="#191A1A" sketch:type="MSShapeGroup" cx="192" cy="740" r="34"></circle>
            <rect id="Home-Icon" stroke="#272727" stroke-width="4" fill="#191A1A" sketch:type="MSShapeGroup" x="182" y="730" width="20" height="20" rx="6"></rect>
            <path d="M178,736.000659 L178,743.999341 C178,749.524992 182.469831,754 188.000659,754 L195.999341,754 C201.524992,754 206,749.530169 206,743.999341 L206,736.000659 C206,730.475008 201.530169,726 195.999341,726 L188.000659,726 C182.475008,726 178,730.469831 178,736.000659 Z M182,736.000659 L182,743.999341 C182,747.313413 184.676536,750 188.000659,750 L195.999341,750 C199.313413,750 202,747.323464 202,743.999341 L202,736.000659 C202,732.686587 199.323464,730 195.999341,730 L188.000659,730 C184.686587,730 182,732.676536 182,736.000659 Z" id="Home-Icon-copy" fill="#272727" sketch:type="MSShapeGroup"></path>
            <rect id="Speaker" fill="#111111" sketch:type="MSShapeGroup" x="162" y="69" width="60" height="8" rx="6"></rect>
            <path d="M200,43 C200,38.5817219 196.418278,35 192,35 C187.581722,35 184,38.5817219 184,43 C184,47.4182781 187.581722,51 192,51 C196.418278,51 200,47.4182781 200,43 Z" id="Camera" fill="#191A1A" sketch:type="MSShapeGroup"></path>
            <circle id="Camera-copy" fill="#2F3030" sketch:type="MSShapeGroup" cx="192" cy="43" r="4"></circle>
            <path d="M4,60.0028638 L4,739.997136 C4,771.478949 29.5115533,797 61.0041538,797 L322.995846,797 C354.478371,797 380,771.481478 380,739.997136 L380,60.0028638 C380,28.5210514 354.488447,3 322.995846,3 L61.0041538,3 C29.521629,3 4,28.5185224 4,60.0028638 Z M322.995846,7 C352.275739,7 376,30.7266212 376,60.0028638 L376,739.997136 C376,769.271417 352.270153,793 322.995846,793 L61.0041538,793 C31.7242613,793 8,769.273379 8,739.997136 L8,60.0028638 C8,30.7285826 31.7298468,7 61.0041538,7 L322.995846,7 Z" id="Antenna" fill="#1C1D1D" sketch:type="MSShapeGroup"></path>
            <path d="M29,118.00265 L29,685.99735 C29,688.210361 30.802198,690 33.005042,690 L350.994958,690 C353.204191,690 355,688.220425 355,685.99735 L355,118.00265 C355,115.789639 353.197802,114 350.994958,114 L33.005042,114 C30.7958087,114 29,115.779575 29,118.00265 Z M32,118.00265 L32,685.99735 C32,686.551098 32.4566964,687 33.005042,687 L350.994958,687 C351.550027,687 352,686.560789 352,685.99735 L352,118.00265 C352,117.448902 351.543304,117 350.994958,117 L33.005042,117 C32.4499726,117 32,117.439211 32,118.00265 Z" id="Screen-copy" fill="#171717" sketch:type="MSShapeGroup"></path>
            <path d="M158,73 C158,77.4193875 161.587646,81 166.006556,81 L217.993444,81 C222.413018,81 226,77.4161072 226,73 C226,68.5806125 222.412354,65 217.993444,65 L166.006556,65 C161.586982,65 158,68.5838928 158,73 Z M162,73 C162,75.209139 163.795681,77 166.006556,77 L217.993444,77 C220.206204,77 222,75.2046438 222,73 C222,70.790861 220.204319,69 217.993444,69 L166.006556,69 C163.793796,69 162,70.7953562 162,73 Z" id="Speaker-copy" fill="#191A1A" sketch:type="MSShapeGroup"></path>
        </g>
    </g>
</svg>